<?xml version="1.0" encoding="UTF-8" standalone="no"?>
<!-- Created with Inkscape (http://www.inkscape.org/) -->

<svg
   version="1.1"
   id="svg289"
   width="800"
   height="800"
   viewBox="0 0 800 800"
   sodipodi:docname="crow-bird-publicdomainvectors.org.svg"
   inkscape:version="1.2 (dc2aedaf03, 2022-05-15)"
   xmlns:inkscape="http://www.inkscape.org/namespaces/inkscape"
   xmlns:sodipodi="http://sodipodi.sourceforge.net/DTD/sodipodi-0.dtd"
   xmlns="http://www.w3.org/2000/svg"
   xmlns:svg="http://www.w3.org/2000/svg">
  <defs
     id="defs293">
    <clipPath
       clipPathUnits="userSpaceOnUse"
       id="clipPath305">
      <path
         d="M 0,600 H 600 V 0 H 0 Z"
         id="path303" />
    </clipPath>
  </defs>
  <sodipodi:namedview
     id="namedview291"
     pagecolor="#ffffff"
     bordercolor="#000000"
     borderopacity="0.25"
     inkscape:showpageshadow="2"
     inkscape:pageopacity="0.0"
     inkscape:pagecheckerboard="0"
     inkscape:deskcolor="#d1d1d1"
     showgrid="false"
     inkscape:zoom="1.04625"
     inkscape:cx="400"
     inkscape:cy="400.4779"
     inkscape:window-width="1920"
     inkscape:window-height="1017"
     inkscape:window-x="-8"
     inkscape:window-y="-8"
     inkscape:window-maximized="1"
     inkscape:current-layer="g297">
    <inkscape:page
       x="0"
       y="0"
       id="page295"
       width="800"
       height="800" />
  </sodipodi:namedview>
  <g
     id="g297"
     inkscape:groupmode="layer"
     inkscape:label="Page 1"
     transform="matrix(1.3333333,0,0,-1.3333333,0,800)">
    <g
       id="g299">
      <g
         id="g301"
         clip-path="url(#clipPath305)">
        <g
           id="g307"
           transform="translate(182.249,538.1299)">
          <path
             d="M 0,0 C 0,2.313 1.881,4.193 4.193,4.193 6.504,4.193 8.387,2.313 8.387,0 8.387,-2.313 6.504,-4.193 4.193,-4.193 1.881,-4.193 0,-2.313 0,0 m 130.511,-90.297 c 0.031,-0.009 0.06,-0.017 0.093,-0.025 0.008,-0.036 -0.025,-0.026 -0.093,0.025 m -70.547,-219.222 2.214,1.651 0.888,0.664 2.742,2.047 c 0.29,-0.231 29.545,-24.194 76.921,-41.862 l -0.41,-4.648 c -2.922,1.088 -5.791,2.203 -8.605,3.33 -3.248,1.303 -6.417,2.627 -9.51,3.963 -38.155,16.475 -63.984,34.652 -64.24,34.855 M -83.368,-16.222 c 0,0 68.744,0.261 73.475,0 6.203,-0.733 4.091,-7.587 3.485,-8.633 -0.607,-1.048 -76.96,8.633 -76.96,8.633 m 70.221,14.129 c 2.497,-0.008 8.486,-10.728 6.739,-11.775 -1.748,-1.046 -63.662,1.571 -86.162,-1.046 23.547,13.605 79.423,12.821 79.423,12.821 M 3.238,5.433 c 0.903,0.413 1.902,0.649 2.96,0.649 3.938,0 7.13,-3.191 7.13,-7.129 0,-2.751 -1.561,-5.134 -3.843,-6.323 L 9.422,-7.29 9.461,-7.381 C 8.484,-7.887 7.375,-8.177 6.198,-8.177 c -3.503,0 -6.41,2.529 -7.01,5.861 -0.328,0.707 -0.525,1.486 -0.525,2.316 0,2.723 1.98,4.977 4.575,5.433 m 65.97,-307.276 c 0.902,0.483 1.97,1.26 2.641,2.434 0.315,0.552 0.518,1.142 0.607,1.762 9.335,-6.479 37.739,-23.538 79.215,-39.416 38.264,-14.653 97.943,-31.979 165.131,-31.405 1.33,-1.539 6.83,-8.496 8.541,-19.955 -107.596,3.932 -232.303,65.703 -256.135,86.58 m 231.326,-130.142 -39.734,47.58 4.158,-0.867 c 9.438,-8.629 33.266,-31.358 35.299,-37.586 1.398,-4.287 0.908,-7.35 0.277,-9.127 m 1.207,-23.567 -53.324,74.469 5.225,-1.623 c 19.078,-21.725 47.709,-55.965 49.185,-62.18 1.225,-5.156 -0.029,-8.752 -1.086,-10.666 m -1.086,-22.605 c -0.008,-0.002 -0.011,-0.006 -0.019,-0.008 l -66.826,100.854 8.673,-2.266 c 24.776,-33.828 61.746,-85.203 62.918,-89.256 0.991,-6.439 -2.462,-8.174 -4.746,-9.324 m -108.941,112.566 84.015,-145.656 c -5.65,-0.813 -15.89,-1.545 -19.58,1.475 -4.189,3.753 -44.152,88.328 -70.968,146.345 z m 108.437,-120.883 c 0.328,-5.908 -1.5,-8.894 -3.004,-10.336 l -79.876,123.25 10.205,-3.558 c 14.375,-20 32.168,-45.295 46.554,-66.574 l 13.284,-20.049 c 7.703,-11.944 12.714,-20.518 12.837,-22.733 M 28.817,-283.733 c 0.589,0.041 1.016,0.4 1.142,0.957 0.108,0.48 -0.063,1.191 -0.408,2.019 1.285,-0.814 2.654,-1.558 3.89,-2.082 0.033,-0.224 0.088,-0.445 0.183,-0.65 0.313,-0.69 1.301,-1.653 2.594,-2.643 0.974,-1.558 1.65,-2.924 1.59,-3.459 h -0.04 c -1.827,0 -6.695,3.549 -8.958,5.858 h 0.007 m -9.518,10.748 c 0.591,0.539 1.58,0.998 2.441,0.511 0.692,-0.392 1.767,-1.554 2.867,-2.955 -0.019,-0.422 0.046,-0.832 0.216,-1.205 0.292,-0.64 1.175,-1.523 2.34,-2.443 0.928,-1.5 1.568,-2.805 1.508,-3.326 h -0.038 c -2.278,0 -9.283,5.515 -10.079,7.267 -0.327,0.717 0.14,1.596 0.745,2.151 m -9.86,11.054 c 0.573,-0.338 1.104,-0.566 1.554,-0.615 0.057,-0.006 0.114,-0.012 0.168,-0.012 0.51,0 0.924,0.27 1.126,0.745 0.13,0.304 0.151,0.734 0.096,1.246 0.18,-0.061 0.354,-0.155 0.515,-0.287 0.655,-0.547 1.59,-2.041 2.48,-3.766 -0.015,-0.254 -0.007,-0.506 0.056,-0.75 0.137,-0.543 0.619,-1.303 1.298,-2.149 0.838,-1.98 1.403,-3.769 1.231,-4.355 -2.214,0.346 -8.195,7.104 -8.669,8.98 -0.084,0.329 -0.013,0.657 0.145,0.963 m -21.144,117.935 c 0.267,-0.455 0.685,-0.704 1.158,-0.704 0.113,0 0.229,0.015 0.348,0.043 0.953,0.237 2.194,1.754 3.39,3.695 0.123,-0.196 0.201,-0.422 0.19,-0.679 -0.102,-2.266 -4.31,-10.178 -5.654,-10.712 -0.867,1.584 -0.555,6.636 0.083,9.729 0.123,-0.557 0.283,-1.026 0.485,-1.372 m 2.192,14.089 v 0.001 c 0.133,0.166 0.34,0.292 0.58,0.394 -0.057,-2.742 0.198,-5.246 0.902,-6.445 0.302,-0.516 0.777,-0.797 1.311,-0.797 0.129,0 0.26,0.016 0.395,0.049 0.024,0.006 0.049,0.018 0.072,0.025 -0.007,-0.078 -0.011,-0.155 -0.016,-0.233 -1.474,-2.966 -3.347,-5.951 -4.192,-6.286 -1.3,2.376 -0.199,11.845 0.948,13.292 m 6.885,64.009 c -0.133,-0.501 -0.267,-0.917 -0.404,-1.236 -1.617,-2.839 -3.411,-5.36 -4.623,-6.552 1.851,6.718 3.452,25.267 4.298,36.623 1.491,-12.5 0.914,-25.522 0.729,-28.835 m 39.74,18.107 c 0.225,-0.909 0.368,-1.615 0.415,-2.079 -1.226,-0.415 -2.291,-1.17 -2.639,-2.237 -0.027,-0.084 -0.041,-0.203 -0.06,-0.308 -0.552,0.631 -1.423,1.029 -2.509,1.133 -0.888,3.459 -2.939,9.911 -7.241,22.229 -1.308,3.745 -2.638,7.491 -3.854,10.884 z m 9.66,0.113 c -1.281,-0.336 -4.403,-1.099 -8.26,-1.674 -0.925,5.671 -9.876,31.223 -14.239,43.493 z m 10.264,-0.208 c -0.491,-0.373 -2.134,-1.154 -6.945,-0.543 -0.472,0.06 -0.863,0.375 -1.018,0.824 -1.788,5.185 -8.71,23.924 -12.141,33.192 z m 11.279,-2.623 c -1.136,-0.27 -3.395,-0.81 -5.682,-1.391 -1.555,1.945 -10.498,19.68 -17.66,34.21 z m 10.293,0.669 c -0.818,-0.552 -2.688,-1.689 -4.993,-2.313 -1.69,1.704 -12.332,18.841 -20.896,32.923 z m 11.469,-2.31 c -0.842,-0.562 -2.705,-1.683 -4.984,-2.295 -1.901,1.571 -15.864,20.012 -27.176,35.218 z m 7.171,-17.342 c -0.041,-0.09 -0.085,-0.179 -0.361,-0.146 -1.812,4.173 -4.225,8.348 -5.474,9.426 -1.264,1.093 -3.169,1.05 -5.098,-0.118 -0.191,-0.115 -0.381,-0.252 -0.569,-0.388 -0.392,0.529 -0.704,1.011 -0.922,1.431 -0.087,0.216 -0.175,0.425 -0.262,0.622 -0.012,0.04 -0.037,0.089 -0.046,0.127 -0.21,0.906 0.104,2.027 0.737,3.01 h 0.037 l 0.058,0.067 c 1.777,0.474 3.28,1.22 4.326,1.828 0.1,-0.063 0.201,-0.124 0.3,-0.209 2.364,-2.044 8.265,-13.444 7.274,-15.65 m 98.79,-139.683 c -0.617,0.121 -1.81,1.198 -3.164,2.693 -0.81,2.319 -1.74,4.227 -2.568,4.961 v -0.001 c -0.528,0.468 -1.203,0.717 -1.938,0.824 -0.65,0.968 -1.205,1.881 -1.617,2.674 -0.055,1.026 -0.187,2.156 -0.393,3.338 0.331,0.568 0.846,1.032 1.354,1.33 0.533,0.313 1.182,0.529 1.787,0.529 0.453,0 0.881,-0.122 1.215,-0.418 1.933,-1.715 6.258,-12.972 5.324,-15.93 m 5.932,-41.185 c -0.156,0.084 -0.334,0.252 -0.528,0.492 0.151,3.785 -0.187,7.508 -1.021,8.865 -0.697,1.141 -2.104,1.733 -3.602,1.898 -0.341,1.219 -0.58,2.311 -0.656,3.133 0.022,0.351 0.037,0.711 0.039,1.091 0.264,1.157 1.414,1.84 2.393,2.076 0.301,0.073 0.625,0.114 0.945,0.114 0.797,0 1.572,-0.25 1.957,-0.878 1.354,-2.202 2.225,-14.231 0.473,-16.791 m -100.924,-22.534 c 4.636,-0.302 9.209,-0.251 11.194,0.844 10.646,-7.47 64.206,-21.785 97.003,-21.783 2.959,0 5.756,0.117 8.33,0.365 4.34,0.42 5.696,2.196 6.071,3.611 0.439,1.663 -0.272,3.62 -2.079,5.801 7.137,-3.97 18.161,-10.845 27.856,-20.043 -49.385,-7.164 -127.723,18.366 -148.375,31.205 m 178.592,-50.734 c -37.125,-1.428 -80.248,4.629 -121.694,17.104 -30.406,9.152 -57.54,21.181 -72.094,31.754 3.61,-1.225 7.953,-2.297 10.865,-1.672 63.88,-34.313 151.091,-36.573 157.964,-32.03 l 0.328,0.217 0.103,0.379 c 0.409,1.494 0.016,3.758 -5.23,8.322 8.57,-4.045 22.541,-12.082 29.758,-24.074 m -205.194,33.791 c 1.648,0.428 3.525,1.23 4.457,2.453 0.193,0.252 0.343,0.518 0.452,0.791 84.361,-60.394 215.972,-64.769 228.64,-59.209 2.815,-1.562 7.758,-5.73 12.723,-16.742 -92.867,-3.473 -195.268,34.483 -246.272,72.707 m -17.312,-3.049 c -0.161,0.358 -0.342,0.731 -0.557,1.119 -0.008,0.498 0.198,1.11 0.563,1.69 1.163,-0.504 2.214,-0.819 2.967,-0.819 0.058,0 0.116,0.002 0.17,0.006 0.59,0.041 1.017,0.401 1.143,0.959 0.011,0.047 0.002,0.108 0.008,0.159 2.32,-2.481 5.636,-7.514 5.504,-8.672 -2.185,-0.063 -8.032,3.656 -9.798,5.558 m -3.742,-2.457 c 1.164,-0.502 2.214,-0.818 2.967,-0.818 0.059,0 0.116,0.002 0.171,0.004 0.588,0.043 1.015,0.402 1.141,0.959 0.003,0.012 0,0.023 0.002,0.035 0.136,-0.109 0.272,-0.217 0.416,-0.328 2.282,-2.596 5.219,-7.127 5.095,-8.219 -2.45,-0.096 -9.571,4.658 -10.263,6.182 -0.242,0.533 -0.027,1.39 0.471,2.185 m -17.11,11.742 c 0.058,0 0.117,0.002 0.172,0.004 0.59,0.043 1.016,0.403 1.141,0.959 0.159,0.7 -0.27,1.885 -0.988,3.229 0.397,0.256 0.916,0.459 1.411,0.277 0.487,-0.541 1.185,-1.15 1.997,-1.769 2.281,-2.596 5.217,-7.127 5.094,-8.219 -2.201,-0.08 -8.283,3.818 -9.903,5.682 0.398,-0.1 0.766,-0.165 1.076,-0.163 m -9.947,9.397 c 0.26,0.121 0.475,0.326 0.6,0.621 0.043,0.1 0.062,0.229 0.083,0.352 0.093,0.103 0.188,0.205 0.29,0.296 0.277,0.256 0.889,0.741 1.518,0.741 0.142,0 0.283,-0.034 0.424,-0.092 0.45,-0.445 1.01,-0.922 1.649,-1.41 2.316,-2.514 5.539,-7.424 5.409,-8.569 -2.386,-0.123 -9.572,4.659 -10.264,6.186 -0.211,0.463 -0.076,1.176 0.291,1.875 m -7.807,12.029 c 0.264,0.164 0.78,0.436 1.302,0.465 0.581,-1.041 1.779,-2.434 3.197,-3.785 1.528,-2.912 2.972,-6.594 2.711,-7.486 -2.411,0.345 -8.594,6.312 -9.006,7.941 -0.207,0.811 0.616,2.121 1.796,2.865 m -29.796,106.239 c -0.091,-0.214 -0.184,-0.43 -0.284,-0.653 -0.965,-0.158 -1.845,-0.571 -2.315,-1.314 -0.462,-0.731 -0.744,-2.412 -0.839,-4.366 -0.552,-0.782 -1.037,-1.331 -1.357,-1.458 -1.055,1.997 0.719,10.895 1.922,12.405 0.051,0.063 0.125,0.094 0.187,0.143 0.118,-0.794 0.298,-1.456 0.555,-1.896 0.243,-0.412 0.622,-0.637 1.049,-0.637 0.103,0 0.209,0.012 0.316,0.038 0.23,0.058 0.483,0.217 0.745,0.425 -0.031,-0.873 -0.023,-1.784 0.021,-2.687 m 4.066,7.543 c 0.185,0 0.375,-0.012 0.565,-0.035 -0.007,-2 0.205,-3.782 0.726,-4.67 0.179,-0.303 0.432,-0.504 0.723,-0.589 -1.044,-3.203 -2.843,-7.113 -3.706,-7.567 -1.02,1.474 -1.241,6.474 -0.94,9.621 0.655,0.904 1.324,2.015 1.941,3.184 0.219,0.036 0.452,0.056 0.691,0.056 m 0.75,25.814 c 0.251,-0.227 0.563,-0.363 0.921,-0.363 0.05,0 0.099,0.002 0.149,0.006 1.024,0.095 2.541,1.449 4.084,3.253 0.152,-0.064 0.349,-0.157 0.561,-0.281 -0.04,-0.523 -0.05,-1.007 -0.042,-1.463 -0.518,-1.696 -0.909,-4.082 -1.088,-6.501 -1.672,-3.361 -3.795,-6.744 -4.753,-7.125 -1.113,2.032 -0.672,8.645 0.168,12.474 M 3.82,-59.964 c -1.51,-2.856 -4.403,-7.371 -5.911,-7.626 -0.002,0 -0.005,0 -0.007,-10e-4 2.221,5.336 3.656,31.733 4.152,42.388 C 4.46,-39.48 4.039,-56.74 3.82,-59.964 m 18.374,8.879 c -1.185,0.134 -2.993,0.301 -4.614,0.301 -0.967,0 -1.868,-0.059 -2.531,-0.221 0.157,9.799 -2.373,25.244 -3.666,32.435 3.784,-9.054 9.601,-28.435 10.811,-32.515 m 1.667,-2.476 c 0.604,9.844 -5.997,28.192 -9.594,37.353 6.254,-11.12 14.991,-32.173 16.478,-35.787 -1.379,-0.408 -5.013,-1.444 -6.884,-1.566 m 8.486,-15.072 c -0.089,-0.063 -0.153,-0.092 -0.311,0.035 -2.424,1.944 -4.98,12.402 -4.306,14.461 0.029,0.092 0.084,0.18 0.132,0.268 1.901,0.472 3.609,0.999 3.742,1.04 l 0.544,0.17 -0.205,0.505 c 1.322,-0.051 2.273,-0.578 2.554,-1.441 0.849,-2.619 -0.509,-13.907 -2.15,-15.038 m 2.624,5.06 c 0.437,0.413 1.043,0.765 1.739,1.024 0.809,-2.259 1.785,-4.2 2.774,-4.995 0.236,-0.188 0.491,-0.283 0.743,-0.283 0.217,0 0.435,0.069 0.636,0.209 0.7,0.483 1.279,1.959 1.724,3.839 0.013,-0.032 0.032,-0.062 0.042,-0.096 1.044,-3.218 -0.623,-17.088 -2.64,-18.48 -0.111,-0.075 -0.19,-0.109 -0.383,0.044 -2.439,1.958 -4.985,10.929 -5.374,15.502 0.291,0.94 0.537,2.051 0.739,3.236 m 4.777,13.18 h 0.006 c 1.429,-0.002 2.458,-0.543 2.75,-1.45 0.85,-2.619 -0.507,-13.907 -2.147,-15.039 -0.091,-0.062 -0.155,-0.089 -0.313,0.035 -2.423,1.946 -4.979,12.403 -4.306,14.463 0.36,1.099 2.158,1.991 4.01,1.991 m 17.714,0.26 c 1.158,-2.498 1.165,-13.866 -0.328,-15.188 -0.08,-0.072 -0.141,-0.11 -0.314,-0.002 -2.64,1.64 -6.429,11.716 -6.008,13.841 0.132,0.671 0.779,1.325 1.661,1.798 0.287,-0.012 0.565,-0.019 0.824,-0.019 1.515,0 2.561,0.184 3.286,0.428 0.403,-0.194 0.707,-0.483 0.879,-0.858 m 29.349,-25.43 c -0.074,-0.11 -0.137,-0.173 -0.373,-0.097 -2.779,0.885 -7.829,7.416 -10.128,11.643 0.46,-0.33 0.889,-0.572 1.266,-0.692 0.141,-0.044 0.278,-0.066 0.41,-0.066 0.366,0 0.682,0.168 0.903,0.494 0.715,1.051 0.38,4.074 -0.345,7.225 0.097,0.043 0.188,0.093 0.288,0.131 1.638,0.628 3.053,0.462 3.792,-0.447 2.132,-2.627 5.568,-16.168 4.187,-18.191 m 11.2,-2.653 c -0.055,-0.122 -0.108,-0.193 -0.349,-0.161 -2.248,0.297 -6.445,3.717 -9.618,6.991 -0.356,2.864 -1.245,6.401 -2.211,9.332 0.326,0.285 0.671,0.556 1.051,0.785 0.82,0.496 1.616,0.746 2.318,0.746 0.579,0 1.092,-0.172 1.494,-0.519 2.56,-2.213 8.32,-14.94 7.315,-17.174 m 53.185,-70.709 c 0.047,0.009 0.102,0.006 0.143,0.017 0.748,0.195 1.211,0.787 1.24,1.586 0.047,1.302 -0.748,3.364 -1.92,5.561 0.623,0.341 1.252,0.536 1.78,0.536 0.226,0 0.433,-0.036 0.613,-0.11 2.066,-0.865 8.72,-10.244 8.746,-13.606 -1.391,-0.184 -6.979,3.154 -10.602,6.016 m 37.172,-41.718 c -0.699,0.086 -2.211,1.317 -3.889,2.983 -0.707,1.908 -1.482,3.434 -2.193,4.079 -0.232,0.21 -0.5,0.371 -0.783,0.507 -0.205,1.859 -0.77,4.142 -1.51,6.356 0.842,-0.56 1.592,-0.896 2.174,-0.898 h 0.002 c 0.516,0 0.941,0.22 1.242,0.582 2.344,-3.681 5.533,-11.186 4.957,-13.609 m 11.006,-36.975 c -1.068,0.334 -3.623,3.852 -5.666,7.359 0.424,0.165 0.762,0.499 0.947,0.986 0.633,1.655 0.258,5.131 -0.562,8.598 0.078,0.005 0.158,0.028 0.234,0.028 0.565,0 1.096,-0.162 1.457,-0.56 1.742,-1.912 4.836,-13.567 3.59,-16.411 m -1.328,-30.479 c -1.344,0.713 -4.293,7.725 -5.402,12.203 -0.071,1.158 -0.19,2.272 -0.346,3.296 0.334,1.039 1.736,1.467 2.197,1.578 0.484,0.118 0.983,0.171 1.463,0.171 1.318,0 2.51,-0.41 2.932,-1.095 1.171,-1.909 1.097,-13.409 -0.844,-16.153 m -81.171,-10.047 9.814,2.838 c 38.492,-12.336 63.621,-15.24 68.962,-7.961 0.916,1.248 1.196,2.711 0.852,4.289 11.269,-7.091 21.861,-15.281 22.459,-18.48 -14.945,-8.646 -79.297,9.848 -102.087,19.314 m -43.561,-19.808 c -2.37,0.637 -6.445,3.215 -8.33,4.93 -0.172,0.636 -0.517,1.402 -0.964,2.222 0.184,0.682 0.644,1.449 1.277,2.028 0.042,0.037 0.093,0.084 0.148,0.128 1.476,-0.746 2.865,-1.267 3.862,-1.359 2.055,-2.369 4.582,-6.213 4.943,-7.713 -0.325,-0.094 -0.645,-0.176 -0.936,-0.236 m -12.989,1.461 c -0.242,0.533 -0.025,1.39 0.472,2.185 1.163,-0.502 2.215,-0.818 2.967,-0.818 0.059,0 0.116,0.002 0.172,0.004 0.384,0.029 0.688,0.201 0.896,0.465 0.612,-0.504 1.311,-1.022 2.066,-1.526 1.922,-2.529 3.793,-5.617 3.693,-6.492 -2.41,-0.129 -9.572,4.656 -10.266,6.182 m -10.162,2.687 c -0.017,0.389 -0.135,0.856 -0.343,1.391 0.15,0.719 0.627,1.56 1.309,2.185 0.277,0.254 0.89,0.739 1.519,0.739 0.185,0 0.371,-0.041 0.551,-0.143 1.979,-1.121 7.095,-8.492 6.932,-9.926 -2.232,-0.101 -8.446,3.918 -9.968,5.754 m -10.47,5.832 c 0.058,0 0.117,0.002 0.17,0.006 0.591,0.041 1.016,0.403 1.143,0.959 0.141,0.621 -0.182,1.629 -0.762,2.795 0.447,0.311 1.096,0.611 1.679,0.283 1.979,-1.121 7.094,-8.492 6.931,-9.925 -2.359,-0.106 -9.13,4.365 -10.168,6.029 0.37,-0.086 0.715,-0.147 1.007,-0.147 m -10.002,8.084 c 0.058,-0.006 0.114,-0.009 0.17,-0.009 0.509,0 0.923,0.269 1.125,0.742 0.192,0.449 0.152,1.174 -0.038,2.045 0.32,0.252 0.796,0.547 1.288,0.547 0.159,0 0.316,-0.04 0.471,-0.112 0.448,-0.469 1.027,-0.98 1.708,-1.508 2.307,-2.546 5.432,-7.324 5.304,-8.451 -0.026,0 -0.051,-0.002 -0.076,-0.002 -2.499,0.002 -9.505,4.676 -10.19,6.186 -0.081,0.18 -0.107,0.398 -0.092,0.637 0.112,-0.028 0.229,-0.063 0.33,-0.075 m -7.684,11.707 c 0.454,-0.207 0.866,-0.339 1.217,-0.377 0.056,-0.007 0.113,-0.011 0.168,-0.011 0.509,0 0.923,0.269 1.126,0.744 0.044,0.101 0.062,0.23 0.084,0.357 0.039,-0.025 0.083,-0.033 0.121,-0.066 1.744,-1.457 5.471,-9.629 5.066,-11.018 -2.411,0.346 -8.595,6.313 -9.008,7.942 -0.169,0.668 0.369,1.677 1.226,2.429 m -10.847,8.354 c 0.265,0.133 0.769,0.348 1.266,0.348 0.206,0 0.407,-0.043 0.593,-0.135 0.167,-0.656 0.833,-1.629 1.755,-2.69 1.44,-3.144 2.913,-7.986 2.516,-8.974 -2.364,0.576 -7.942,7.113 -8.195,8.775 -0.127,0.826 0.82,2.051 2.065,2.676 m -22.634,27.687 c 0.102,0.772 0.948,1.264 1.741,1.407 0.789,0.147 1.879,-0.003 2.355,-0.885 1.074,-2.001 1.507,-10.976 0.622,-12.13 -1.926,1.16 -4.971,9.687 -4.718,11.608 m -2.308,15.624 c 0.182,0.754 1.071,1.152 1.872,1.211 0.201,0.013 0.421,0.007 0.641,-0.024 0.599,-1.701 1.309,-3.213 2.023,-4.084 0.007,-0.225 0.014,-0.452 0.017,-0.689 -0.399,-0.376 -0.705,-0.817 -0.829,-1.328 -0.194,-0.802 0.044,-2.366 0.526,-4.135 -0.192,-1.493 -0.465,-2.663 -0.788,-3.004 -1.792,1.362 -3.917,10.17 -3.462,12.053 m -2.08,13.006 c 0.235,0 0.47,0.074 0.687,0.223 0.355,0.244 0.669,0.773 0.946,1.474 0.485,-1.675 1.103,-3.319 1.761,-4.547 -0.087,-0.148 -0.166,-0.301 -0.219,-0.466 -0.251,-0.785 -0.124,-2.361 0.229,-4.159 -0.299,-1.476 -0.654,-2.623 -1,-2.94 -1.359,1.196 -2.585,7.198 -2.709,10.47 0.101,-0.027 0.202,-0.055 0.305,-0.055 m -2.593,13.653 c 0.236,0.735 1.15,1.066 1.95,1.068 h 0.008 c 0.805,0 1.852,-0.339 2.164,-1.298 0.226,-0.693 0.257,-2.084 0.164,-3.683 -0.427,-0.347 -0.764,-0.764 -0.923,-1.264 -0.251,-0.785 -0.126,-2.362 0.229,-4.16 -0.299,-1.475 -0.654,-2.622 -1,-2.939 -1.691,1.49 -3.18,10.43 -2.592,12.276 m 13.752,21.645 c 0.213,-1.843 0.598,-3.44 1.173,-4.218 0.256,-0.346 0.605,-0.53 0.984,-0.53 0.142,0 0.289,0.025 0.436,0.079 0.03,0.011 0.063,0.041 0.094,0.055 -0.997,-3.296 -2.984,-7.725 -3.906,-8.21 -1.105,1.597 -1.275,7.336 -0.852,10.367 0.398,0.648 0.794,1.416 1.175,2.246 0.261,0.106 0.565,0.174 0.896,0.211 m -0.429,42.664 c 0.268,-0.266 0.597,-0.405 0.96,-0.405 0.136,0 0.277,0.019 0.421,0.059 1.625,0.449 3.9,3.888 5.849,7.727 0.133,-0.104 0.268,-0.22 0.396,-0.356 -0.912,-1.387 -1.865,-4.105 -2.509,-6.917 -2.025,-2.878 -4.471,-5.709 -5.413,-5.921 -0.405,1.106 -0.191,3.4 0.296,5.813 m 4.084,32.012 c -0.341,-2.164 -0.449,-5.215 -0.294,-8.279 -1.143,-1.758 -2.2,-2.999 -2.928,-3.201 -0.145,-0.04 -0.236,-0.045 -0.379,0.183 -2.206,3.519 -0.843,17.848 0.91,20.153 0.222,0.29 0.546,0.528 0.934,0.716 0.11,-3.816 0.661,-7.677 1.757,-9.572 m 8.168,14.36 c -0.102,-0.04 -0.171,-0.051 -0.293,0.109 -1.884,2.471 -1.843,13.236 -0.693,15.074 0.615,0.981 2.576,1.413 4.379,0.964 1.385,-0.345 2.252,-1.12 2.318,-2.07 0.193,-2.746 -3.844,-13.375 -5.711,-14.077 m 37.102,-12.667 h 0.01 c 1.506,-0.002 2.67,-0.459 3.292,-1.243 -0.008,-0.985 0.261,-2.451 0.731,-4.149 0.018,-5.729 -1.481,-15.456 -3.219,-16.655 -0.12,-0.083 -0.206,-0.121 -0.417,0.048 -2.184,1.753 -4.446,8.67 -5.414,13.841 0.121,2.48 0.069,4.625 -0.174,5.834 0.134,0.245 0.301,0.483 0.53,0.702 0.091,-0.019 0.181,-0.051 0.271,-0.051 0.266,0 0.531,0.085 0.781,0.258 0.265,0.182 0.515,0.482 0.752,0.875 0.859,0.334 1.849,0.54 2.857,0.54 m 9.716,16.785 c 0.026,-5.256 -1.355,-14.257 -2.96,-15.364 -0.111,-0.076 -0.191,-0.11 -0.383,0.044 -2.524,2.024 -5.162,11.557 -5.406,15.961 0.532,-1.056 1.094,-1.902 1.664,-2.359 0.234,-0.189 0.489,-0.284 0.742,-0.284 0.217,0 0.433,0.07 0.637,0.21 1.025,0.707 1.792,3.548 2.254,6.676 0.888,-0.034 1.637,-0.245 2.19,-0.603 0.316,-0.659 0.642,-1.291 0.975,-1.881 -0.025,-0.601 0.079,-1.427 0.287,-2.4 m 55.528,-49.741 c -1.479,-0.209 -6.926,2.855 -11.127,5.874 0.643,1.969 0.275,6.052 -0.479,10.045 0.163,0.026 0.319,0.041 0.468,0.041 0.256,0 0.488,-0.04 0.692,-0.122 0.335,-0.135 0.78,-0.472 1.287,-0.937 0.826,-0.99 1.716,-1.977 2.629,-2.917 3.044,-3.814 6.48,-9.396 6.53,-11.984 m 8.173,-13.515 c -2.43,0.038 -13.641,10.059 -15.104,13.582 -0.091,0.22 -0.123,0.439 -0.129,0.655 2.791,-1.623 5.462,-2.803 7.098,-2.803 0.237,0 0.453,0.025 0.645,0.077 0.873,0.238 1.406,0.94 1.43,1.877 0.023,1.012 -0.387,2.411 -1.073,3.984 2.831,-3.536 7.66,-13.75 7.133,-17.372 m 26.266,-24.186 c -1.267,-0.178 -6.109,2.643 -9.701,5.328 0.063,0.205 0.1,0.424 0.082,0.665 -0.101,1.452 -1.336,3.732 -2.994,6.05 0.117,0.121 0.238,0.235 0.363,0.346 2.686,-1.936 5.397,-3.464 6.944,-3.464 0.129,0 0.25,0.011 0.361,0.033 0.143,0.027 0.266,0.084 0.389,0.14 2.291,-3.166 4.541,-7.145 4.556,-9.098 m 11.022,-7.749 c -1.395,-0.189 -6.981,3.153 -10.604,6.017 0.047,0.008 0.104,0.005 0.147,0.017 0.746,0.194 1.209,0.787 1.236,1.585 0.047,1.302 -0.746,3.364 -1.918,5.561 0.397,0.218 0.793,0.368 1.166,0.454 1.061,-0.624 2.09,-1.165 3.029,-1.572 2.764,-2.999 6.922,-9.404 6.944,-12.062 m 6.32,-12.395 c -0.199,-0.137 -0.381,-0.282 -0.555,-0.43 -3.525,2.321 -8.599,6.724 -9.545,8.693 -0.558,1.162 0.631,2.431 1.01,2.792 0.084,0.081 0.184,0.143 0.274,0.218 0.992,-0.406 1.871,-0.652 2.539,-0.652 0.191,0 0.365,0.019 0.519,0.06 0.737,0.192 1.196,0.774 1.233,1.559 1.699,-1.366 5.185,-7.205 6.535,-11.258 -0.725,-0.244 -1.422,-0.576 -2.01,-0.982 m 10.461,-16.149 c -1.932,0.234 -10.014,9.146 -10.881,12.071 -0.367,1.235 1.01,2.299 1.442,2.597 0.99,0.681 2.189,1.058 3.148,1.058 0.523,0 0.975,-0.112 1.281,-0.347 1.781,-1.362 5.838,-12.12 5.01,-15.379 m 12.871,-32.581 c -1.893,0.445 -8.943,10.192 -9.484,13.196 -0.229,1.267 1.254,2.173 1.715,2.42 0.021,0.011 0.043,0.018 0.064,0.029 0.262,-0.089 0.506,-0.14 0.727,-0.14 h 0.003 c 0.612,0 1.106,0.298 1.403,0.801 0.203,0.024 0.404,0.042 0.597,0.042 0.717,0 1.332,-0.168 1.692,-0.511 1.617,-1.549 4.467,-12.691 3.283,-15.837 M 74.225,-276.929 c -11.712,2.459 -25.03,38.624 -28.224,47.774 1.343,-1.223 3.386,-2.861 5.565,-3.824 l 12.483,-26.829 -10.026,26.092 c 0.229,-0.031 0.456,-0.054 0.682,-0.061 1.131,-0.034 2.145,0.249 3.016,0.852 1.629,-5.367 5.157,-12.139 8.542,-17.97 2.043,-4.614 4.234,-8.491 6.555,-11.666 2.418,-7.95 1.714,-12.922 1.407,-14.368 m -10.362,0.703 c -0.379,1.01 -1.371,3.641 -2.75,7.229 0.298,0.195 0.662,0.375 1.042,0.375 0.184,0 0.37,-0.041 0.549,-0.143 1.564,-0.886 5.077,-5.666 6.406,-8.345 l -0.121,0.009 0.18,-0.125 c 0.318,-0.656 0.5,-1.181 0.467,-1.466 -1.217,-0.061 -3.602,1.099 -5.773,2.466 m -10.04,-1.806 c -0.017,0.388 -0.135,0.857 -0.341,1.388 0.148,0.721 0.625,1.563 1.31,2.188 0.022,0.021 0.058,0.049 0.084,0.074 1.594,-1.041 3.265,-1.926 5.01,-2.635 1.993,-2.576 4.008,-5.861 3.904,-6.769 -2.208,-0.115 -8.444,3.92 -9.967,5.754 m -19.509,13.162 c 0.058,-0.006 0.113,-0.012 0.168,-0.012 0.511,0.002 0.925,0.272 1.128,0.744 0.248,0.584 0.112,1.625 -0.248,2.869 0.224,0.083 0.463,0.125 0.702,0.09 0.569,-0.695 1.524,-1.527 2.672,-2.361 2.2,-2.641 4.758,-6.666 4.642,-7.686 -2.447,-0.105 -9.571,4.657 -10.266,6.184 -0.076,0.166 -0.099,0.369 -0.091,0.588 0.483,-0.227 0.924,-0.375 1.293,-0.416 m -37.782,29.074 c 0.304,0.116 0.667,0.195 1.032,0.195 0.529,0 1.064,-0.167 1.435,-0.626 0.334,-0.413 0.702,-1.216 1.063,-2.207 0.088,-0.525 0.314,-1.197 0.633,-1.945 0.902,-3.11 1.563,-6.841 1.148,-7.649 -2.105,0.775 -6.667,8.579 -6.773,10.515 -0.042,0.782 0.705,1.425 1.462,1.717 m -5.29,24.051 c 0.193,0.801 1.515,1.563 2.886,1.665 0.064,0.005 0.158,0.01 0.267,0.01 0.494,0 1.32,-0.117 1.67,-0.731 0.052,-0.721 0.22,-1.622 0.471,-2.6 0.19,-3.456 -0.29,-8.84 -1.052,-9.641 -1.966,1.456 -4.638,9.666 -4.242,11.297 m -2.433,13.649 c 0.247,-0.2 0.522,-0.3 0.796,-0.3 0.235,0 0.471,0.074 0.687,0.223 0.497,0.341 0.919,1.224 1.264,2.388 0.008,0 0.014,0.001 0.021,0.001 h 0.009 c 0.371,0 1.501,-0.074 1.881,-0.835 -0.003,-0.728 0.1,-1.644 0.282,-2.651 -0.058,-3.46 -0.923,-8.795 -1.739,-9.542 -1.695,1.459 -3.569,8.564 -3.492,11.005 0.097,-0.104 0.194,-0.212 0.291,-0.289 m -2.627,12.656 c 0.25,0.781 1.619,1.444 2.989,1.448 h 0.008 c 0.371,0 1.502,-0.074 1.883,-0.837 -0.002,-0.727 0.1,-1.644 0.281,-2.65 -0.057,-3.461 -0.922,-8.795 -1.738,-9.541 -1.856,1.596 -3.934,9.981 -3.423,11.58 m 10.129,14.766 c 0.385,-0.06 1.649,-0.33 1.799,-1.289 0.253,-1.608 -0.981,-6.478 -2.147,-9.404 -0.166,0.016 -0.335,0.028 -0.509,0.029 -0.531,-0.002 -1.095,-0.094 -1.639,-0.253 -0.876,3.05 -1.217,8.121 -0.761,9.695 0.254,-0.331 0.595,-0.509 0.964,-0.509 0.142,0 0.288,0.026 0.434,0.079 0.503,0.182 1.057,0.807 1.614,1.671 0.081,-0.009 0.164,-0.006 0.245,-0.019 m 6.795,59.953 c 0.115,-2.641 0.496,-4.912 1.215,-6.061 0.299,-0.477 0.731,-0.731 1.223,-0.731 0.134,0 0.276,0.02 0.419,0.059 0.01,0.003 0.02,0.01 0.032,0.013 -1.944,-2.686 -4.152,-5.196 -5.035,-5.395 -0.79,2.162 0.759,8.837 2.146,12.115 m 3.433,30.532 c 0.693,-0.161 1.293,-0.402 1.776,-0.709 0.315,-1.312 0.723,-2.393 1.237,-3.068 0.032,-0.041 0.068,-0.072 0.101,-0.109 -0.51,-4.863 -5.001,-16.883 -7.264,-17.782 -0.137,-0.053 -0.229,-0.071 -0.395,0.14 -2.036,2.576 -2.588,12.096 -1.993,17.205 0.109,-0.03 0.221,-0.049 0.336,-0.049 0.167,0 0.341,0.033 0.516,0.099 1.035,0.39 2.238,2.15 3.384,4.449 0.745,0.048 1.532,0.002 2.302,-0.176 m 27.552,-1.928 h 0.01 c 1.909,-0.003 3.283,-0.728 3.676,-1.94 1.135,-3.501 -0.678,-18.593 -2.872,-20.107 -0.119,-0.083 -0.206,-0.124 -0.417,0.047 -3.241,2.601 -6.656,16.582 -5.757,19.336 0.115,0.351 0.345,0.684 0.654,0.991 0.183,-0.209 0.366,-0.394 0.551,-0.542 0.288,-0.232 0.601,-0.348 0.913,-0.348 0.265,0 0.53,0.085 0.78,0.257 0.515,0.356 0.976,1.15 1.38,2.223 0.357,0.048 0.717,0.083 1.082,0.083 m 8.504,-26.521 c -0.639,-5.127 -2.15,-11.244 -3.611,-12.252 -0.198,-0.136 -0.315,-0.132 -0.504,0.019 -2.376,1.909 -4.495,11.008 -4.683,15.789 0.299,-0.224 0.618,-0.346 0.936,-0.346 0.29,0 0.58,0.093 0.85,0.28 0.91,0.627 1.666,2.512 2.253,4.927 0.422,0.072 0.853,0.122 1.291,0.122 h 0.007 c 0.747,0 1.402,-0.121 1.949,-0.337 0.381,-0.868 0.78,-1.66 1.188,-2.342 -0.319,-1.036 -0.159,-3.254 0.324,-5.86 m 5.932,8.101 h 0.008 c 1.835,-0.002 3.156,-0.698 3.535,-1.863 1.092,-3.367 -0.653,-17.875 -2.761,-19.33 -0.114,-0.08 -0.201,-0.117 -0.401,0.045 -2.816,2.259 -5.768,13.452 -5.673,17.539 0.211,-0.244 0.424,-0.458 0.637,-0.628 0.314,-0.253 0.653,-0.379 0.993,-0.379 0.289,0 0.579,0.092 0.85,0.279 0.827,0.572 1.53,2.188 2.092,4.296 0.237,0.022 0.478,0.041 0.72,0.041 m 16.142,20.772 c 0.021,-2.066 1.224,-6.134 2.888,-10.015 0.123,-5.109 -0.33,-10.612 -1.477,-11.638 -0.108,-0.098 -0.189,-0.147 -0.42,-0.007 -3.54,2.176 -8.682,15.618 -8.136,18.462 0.233,1.209 1.702,2.386 3.527,2.976 0.177,-0.152 0.352,-0.289 0.524,-0.396 0.265,-0.164 0.536,-0.245 0.799,-0.245 0.318,0 0.625,0.119 0.895,0.358 0.179,0.159 0.341,0.384 0.489,0.659 0.327,-0.023 0.63,-0.075 0.911,-0.154 m 9.778,-17.991 c -0.108,-0.097 -0.191,-0.146 -0.42,-0.005 -3.541,2.175 -8.683,15.616 -8.136,18.461 0.257,1.336 2.02,2.646 4.114,3.152 0.873,-1.341 1.755,-2.382 2.577,-2.886 0.264,-0.162 0.533,-0.242 0.792,-0.242 0.322,0 0.631,0.122 0.901,0.364 0.254,0.226 0.474,0.586 0.666,1.042 1.403,-4.022 1.419,-18.174 -0.494,-19.886 m 22.608,-11.233 c -0.086,-0.11 -0.158,-0.17 -0.394,-0.076 -1.505,0.59 -3.948,3.287 -6.253,6.414 -0.214,1.734 -0.499,3.115 -0.825,3.81 -0.524,1.116 -1.605,1.814 -3.01,2.033 -0.168,0.294 -0.325,0.579 -0.478,0.859 0.257,1.69 0.254,3.958 0.082,6.362 0.481,0.282 1.034,0.534 1.663,0.73 0.33,0.102 0.677,0.169 1.022,0.237 2.21,-1.87 4.528,-3.517 6.454,-4.42 1.623,-5.295 2.971,-14.375 1.739,-15.949 m 4.145,-15.079 c -1.699,0.228 -7.386,6.252 -10.526,10.697 0.159,2.168 0.163,4.596 0.052,6.863 0.297,0.173 0.6,0.324 0.912,0.453 1.733,-2.042 3.397,-3.607 4.603,-4.079 0.133,-0.052 0.265,-0.082 0.393,-0.102 0.64,-0.479 1.31,-0.96 2.002,-1.437 1.714,-4.41 3.192,-10.065 2.564,-12.395 m 46.174,-41.394 c -1.049,-0.149 -4.52,1.741 -7.717,3.913 -0.592,0.918 -1.207,1.824 -1.842,2.705 0.206,0.269 0.327,0.61 0.34,1.002 0.047,1.301 -0.748,3.364 -1.92,5.561 0.547,0.299 1.094,0.477 1.576,0.519 0.768,-0.462 1.522,-0.878 2.245,-1.239 2.744,-2.788 7.297,-9.678 7.318,-12.461 m 39.498,-74.384 c -1.508,0.465 -5.984,7.287 -7.791,11.46 -0.223,0.991 -0.473,1.911 -0.74,2.726 0.152,1.065 1.435,1.737 1.863,1.931 0.811,0.365 1.705,0.546 2.498,0.546 0.863,0 1.606,-0.214 1.992,-0.637 1.508,-1.658 3.577,-12.97 2.178,-16.026 m 1.85,8.418 c -0.533,3.756 -1.543,7.397 -2.614,8.701 0.434,0.398 0.95,0.659 1.192,0.768 0.81,0.366 1.705,0.546 2.498,0.546 0.861,0 1.605,-0.212 1.99,-0.637 1.508,-1.658 3.578,-12.97 2.18,-16.025 -0.996,0.307 -3.285,3.389 -5.246,6.647 m 1.209,-24.061 c -0.965,0.42 -2.922,3.799 -4.516,7.293 -0.066,2.741 -0.414,5.127 -1.047,6.154 -0.326,0.532 -0.816,0.933 -1.389,1.24 v 0.001 c 0.004,0.604 0.366,1.058 0.797,1.39 1.069,-1.234 2.081,-2.081 2.883,-2.228 0.112,-0.02 0.221,-0.03 0.326,-0.03 0.623,0 1.155,0.338 1.465,0.944 0.239,0.468 0.401,1.116 0.508,1.872 0.246,-0.131 0.461,-0.281 0.598,-0.468 1.314,-1.817 2.105,-13.287 0.375,-16.168 m -34.563,-7.629 c 12.014,-4.473 26.697,-3.313 29.998,-0.152 0.123,0.117 0.229,0.234 0.32,0.351 1.602,-1.443 4.327,-4.375 4.872,-8.021 -6.596,-6.041 -32.479,0.246 -48.817,6.453 3.436,0.039 8.145,0.345 13.627,1.369 m -74.446,38.52 c 1.289,-0.659 3.386,-1.609 5.791,-2.297 l 13.063,-24.694 -10.642,24.136 c 0.924,-0.165 1.863,-0.282 2.806,-0.301 4.531,-8.319 17.767,-29.829 28.506,-36.815 -2.469,-0.442 -8.613,-0.819 -16.518,3.927 -8.95,5.37 -20.272,29.898 -23.006,36.044 m -9.651,-3.573 c 0.728,-0.323 1.788,-0.735 2.931,-1.029 l 12.56,-26.998 -10.236,26.644 c 0.65,-0.015 1.278,0.058 1.839,0.259 0.571,0.206 1.043,0.527 1.406,0.958 0.109,-0.233 0.227,-0.486 0.353,-0.755 3.605,-7.705 14.377,-30.739 26.763,-39.223 -1.702,-0.272 -5.546,-0.366 -12.209,2.011 -15.007,5.358 -22.077,32.454 -23.407,38.133 m -11.055,-1.546 c -0.056,0.216 -0.108,0.416 -0.155,0.599 0.829,-0.336 2.084,-0.765 3.472,-0.989 l 12.713,-27.322 -10.447,27.187 c 0.895,0.049 1.784,0.234 2.601,0.632 1.227,-3.764 3.787,-8.97 6.798,-14.457 2.346,-5.744 5.557,-11.881 9.756,-16.545 3.505,-5.643 6.401,-10.055 7.289,-11.399 -1.767,-0.974 -8.429,1.141 -10.645,2.45 -8.607,5.085 -15.801,18.492 -21.382,39.844 m -13.922,-3.56 c 0.023,-0.016 0.047,-0.031 0.07,-0.046 0.055,-0.148 0.111,-0.301 0.167,-0.453 -0.079,0.167 -0.159,0.337 -0.237,0.499 m -15.695,2.251 c 1.723,-1.734 3.976,-3.33 6.38,-3.294 l 13.788,-28.029 -11.752,28.484 c 1.553,0.715 2.574,2.531 3.18,4.061 5.594,-10.222 16.17,-37.81 19.097,-45.537 -17.608,6.582 -27.256,32.868 -30.693,44.315 m 13.167,-37.516 c 0.319,0.246 0.787,0.527 1.267,0.527 0.055,0 0.111,-0.011 0.166,-0.019 0.569,-0.695 1.526,-1.527 2.674,-2.36 2.198,-2.642 4.757,-6.667 4.642,-7.689 -2.199,-0.08 -8.09,3.689 -9.822,5.586 0.238,-0.041 0.461,-0.068 0.66,-0.068 0.058,0 0.117,0.004 0.171,0.005 0.589,0.041 1.017,0.403 1.142,0.959 0.151,0.67 -0.237,1.784 -0.9,3.059 m -4.902,8.022 c 0.056,-0.008 0.112,-0.01 0.168,-0.01 0.51,0 0.924,0.269 1.125,0.744 0.145,0.34 0.149,0.85 0.065,1.453 1.606,-2.605 3.368,-5.131 5.297,-7.467 -3.069,1.076 -8.123,4.588 -8.699,5.858 -0.038,0.084 -0.059,0.177 -0.076,0.275 0.814,-0.473 1.55,-0.791 2.12,-0.853 m -12.804,6.771 c 0.518,-0.248 0.99,-0.416 1.381,-0.459 0.057,-0.008 0.112,-0.01 0.167,-0.01 0.511,0 0.925,0.27 1.127,0.742 0.125,0.291 0.15,0.698 0.104,1.184 0.048,-0.012 0.098,-0.01 0.144,-0.025 0.436,-0.787 1.23,-1.78 2.214,-2.809 1.695,-2.994 3.502,-7.418 3.212,-8.408 -2.41,0.346 -8.593,6.312 -9.005,7.939 -0.129,0.506 0.145,1.209 0.656,1.846 m -7.185,10.212 c 0.166,-0.087 0.327,-0.162 0.477,-0.211 0.146,-0.045 0.288,-0.068 0.428,-0.068 0.394,0 0.746,0.184 0.983,0.533 0.229,0.335 0.332,0.893 0.353,1.581 0.191,0.061 0.391,0.108 0.595,0.108 0.134,0 0.269,-0.018 0.399,-0.061 0.434,-0.788 1.23,-1.781 2.214,-2.811 1.695,-2.992 3.502,-7.418 3.212,-8.406 -2.41,0.344 -8.593,6.312 -9.006,7.938 -0.098,0.39 0.045,0.895 0.345,1.397 m -11.972,6.635 c -0.046,0.831 1.01,1.955 2.305,2.452 0.454,0.176 1.574,0.504 2.151,-0.213 1.429,-1.769 3.509,-10.512 2.846,-11.803 -2.298,0.818 -7.211,7.886 -7.302,9.564 m -9.483,53.244 c 0.703,-2.159 -0.457,-11.067 -1.53,-12.045 -1.857,1.597 -3.934,9.981 -3.423,11.579 0.251,0.782 1.619,1.445 2.989,1.449 h 0.009 c 0.394,0 1.66,-0.073 1.955,-0.983 m 4.661,25.462 c 0.212,-1.844 0.597,-3.445 1.173,-4.222 0.257,-0.348 0.606,-0.532 0.984,-0.532 0.142,0 0.289,0.027 0.434,0.079 0.024,0.01 0.05,0.033 0.074,0.043 -0.002,-0.026 -0.004,-0.052 -0.004,-0.078 -1.006,-3.286 -2.967,-7.638 -3.881,-8.12 -1.155,1.673 -1.287,7.887 -0.789,10.776 0.285,0.527 0.566,1.102 0.838,1.71 0.308,0.178 0.717,0.295 1.171,0.344 m -0.425,12.368 c 0.039,-0.083 0.072,-0.18 0.114,-0.252 0.268,-0.455 0.684,-0.704 1.157,-0.704 0.114,0 0.23,0.014 0.348,0.044 1.162,0.288 2.752,2.475 4.165,5.02 0.048,-0.08 0.084,-0.167 0.114,-0.258 -0.358,-0.821 -0.663,-2.049 -0.884,-3.452 -1.345,-3.159 -3.75,-7.28 -4.708,-7.66 -0.66,1.207 -0.636,4.428 -0.306,7.262 m 4.174,14.471 c 0.171,0 0.351,-0.029 0.529,-0.048 -0.097,-2.924 0.144,-5.648 0.888,-6.915 0.051,-0.088 0.114,-0.159 0.175,-0.232 -1.502,-3.106 -3.521,-6.38 -4.41,-6.73 -0.893,1.635 -0.649,6.633 -0.037,10.059 0.819,1.041 1.667,2.391 2.464,3.839 0.129,0.012 0.254,0.027 0.391,0.027 m 11.062,48.537 c 0.383,-0.084 0.729,-0.199 1.052,-0.33 -0.335,-0.378 -0.611,-0.791 -0.764,-1.261 -0.487,-1.489 0.031,-5.475 1.095,-9.589 -1.59,-4.874 -3.867,-9.944 -5.297,-10.531 -0.134,-0.056 -0.229,-0.073 -0.397,0.135 -2.543,3.147 -2.947,16.871 -1.615,19.893 0.07,0.017 0.138,0.015 0.207,0.041 0.497,0.188 1.034,0.69 1.583,1.415 1.155,0.431 2.677,0.548 4.136,0.227 m 6.785,0.703 h 0.009 c 1.908,-0.003 3.283,-0.728 3.676,-1.94 0.061,-0.186 0.111,-0.41 0.155,-0.658 -0.191,-0.934 -0.114,-2.512 0.164,-4.393 -0.219,-5.778 -1.605,-13.962 -3.192,-15.056 -0.118,-0.083 -0.207,-0.122 -0.415,0.047 -3.241,2.601 -6.657,16.582 -5.757,19.336 0.12,0.369 0.364,0.721 0.7,1.043 0.174,-0.243 0.351,-0.456 0.531,-0.63 0.301,-0.286 0.641,-0.431 0.989,-0.431 0.231,0 0.464,0.063 0.692,0.192 0.604,0.343 1.19,1.232 1.732,2.447 0.238,0.021 0.476,0.043 0.716,0.043 m 9.726,-29.004 c -1.481,-4.198 -3.371,-8.178 -4.604,-8.685 -0.129,-0.051 -0.219,-0.07 -0.382,0.13 -1.918,2.374 -2.569,11.007 -2.141,16.019 0.487,1.002 0.911,2.377 1.266,3.947 0.629,0.491 1.578,0.814 2.637,0.916 0.746,-2.016 1.592,-3.807 2.47,-5.041 -0.093,-1.818 0.194,-4.512 0.754,-7.286 m 19.326,-9.279 1.001,-32.668 1.001,32.641 c 0.77,-0.013 1.532,-0.031 2.267,-0.051 0.597,-1.173 1.206,-2.088 1.793,-2.615 -3.197,-8.007 0.162,-19.781 2.115,-25.333 0.048,-0.135 0.109,-0.306 0.177,-0.494 -0.554,-4.736 -1.45,-8.922 -2.664,-11.591 -0.569,-1.245 -1.075,-1.835 -1.425,-2.113 -5.39,3.878 -9.016,14.663 -9.059,14.789 -1.052,3.035 -2.194,22.581 -1.005,26.727 0.413,-0.628 0.835,-1.133 1.259,-1.473 0.302,-0.242 0.628,-0.364 0.954,-0.364 0.279,0 0.557,0.088 0.817,0.269 0.531,0.366 1.007,1.18 1.426,2.28 0.436,0 0.884,0 1.343,-0.004 m 6.312,20.301 h 0.008 c 0.628,0 1.189,-0.089 1.68,-0.242 -0.246,-1.537 0.654,-5.38 2.056,-9.351 -0.398,-5.476 -1.513,-11.769 -2.814,-12.666 -0.086,-0.06 -0.15,-0.102 -0.334,0.047 -3.093,2.481 -6.592,17.073 -5.75,19.652 0.168,0.513 0.584,0.988 1.153,1.389 0.377,-0.398 0.75,-0.72 1.109,-0.945 0.288,-0.178 0.583,-0.267 0.868,-0.267 0.348,0 0.682,0.13 0.976,0.39 0.424,0.375 0.767,1.072 1.042,1.993 h 0.006 m 11.377,1.357 c 0.2,-0.434 0.374,-1.094 0.521,-1.909 -0.153,-0.292 -0.277,-0.595 -0.339,-0.916 -0.217,-1.133 0.158,-3.445 0.888,-6.096 0.084,-5.327 -0.413,-11.108 -1.587,-12.145 -0.093,-0.084 -0.157,-0.122 -0.344,-0.005 -3.289,2.044 -8.245,16.532 -7.691,19.336 0.066,0.337 0.243,0.67 0.489,0.988 0.906,-1.368 1.824,-2.427 2.681,-2.953 0.286,-0.177 0.577,-0.263 0.86,-0.263 0.351,0 0.687,0.133 0.98,0.396 0.799,0.713 1.307,2.58 1.592,4.94 0.928,-0.193 1.621,-0.663 1.95,-1.373 m 60.315,-70.8 c 1.571,-5.477 2.352,-10.693 0.862,-13.235 -2.883,0.849 -8.804,6.188 -12.034,9.54 -1.995,2.407 -5.246,9.872 -5.032,14.597 2.036,-1.627 4.058,-2.897 5.753,-3.298 l 8.372,-17.785 -6.725,17.7 0.767,0.108 v 0.91 c 0,3.191 -0.247,6.284 -0.724,9.25 0.463,-0.342 1.084,-0.78 1.804,-1.242 -0.129,-0.801 -0.195,-1.66 -0.168,-2.563 0.094,-3.122 3.621,-9.068 7.125,-13.982 m 32.348,-22.377 c -1.377,0.167 -5.863,4.733 -8.65,8.405 -0.745,1.753 -1.541,3.254 -2.278,4.208 0.082,0.994 1.121,1.801 1.487,2.053 0.99,0.683 2.191,1.06 3.15,1.06 0.524,0 0.975,-0.112 1.281,-0.347 1.782,-1.361 5.838,-12.122 5.01,-15.379 m 12.865,-31.947 c -1.361,0.266 -5.506,5.144 -8.019,9.01 -0.616,1.801 -1.303,3.356 -1.967,4.36 0.152,0.987 1.248,1.716 1.631,1.941 0.224,0.132 0.459,0.246 0.695,0.348 0.455,-0.218 0.867,-0.344 1.215,-0.345 h 0.004 c 0.617,0 1.111,0.303 1.406,0.813 0.477,-0.049 0.883,-0.187 1.153,-0.426 v 0 c 1.675,-1.487 4.943,-12.512 3.882,-15.701 m 6.047,-35.27 c -1.246,0.66 -3.875,6.744 -5.133,11.198 0.977,-0.5 1.912,-0.901 2.793,-1.17 l 0.895,-0.276 0.371,0.862 c 0.834,1.929 0.785,4.149 0.103,6.526 0.836,-0.162 1.518,-0.505 1.815,-0.988 1.172,-1.91 1.099,-13.408 -0.844,-16.152 m -141.416,40.972 c -0.373,0.877 -0.815,1.875 -1.295,2.96 -2.91,6.571 -7.607,17.202 -6.388,22.6 1.326,-2.044 3.178,-4.25 5.539,-5.579 l 10.188,-23.795 -7.824,22.838 c 0.415,-0.104 0.841,-0.183 1.281,-0.224 l 0.734,-0.069 0.311,0.67 c 0.247,0.53 0.468,1.055 0.695,1.581 1.483,-6.543 5.972,-17.523 8.224,-21.353 0.134,-0.2 0.458,-0.672 0.92,-1.31 1.229,-4.81 1.886,-8.661 1.477,-10.359 -6.777,0.717 -13.325,11.166 -13.862,12.04 m -10.77,-20.32 c -1.964,1.455 -4.637,9.664 -4.243,11.298 0.123,0.508 0.703,1 1.461,1.318 l 0.172,-0.7 c 0.309,-1.257 1.332,-5.222 3.146,-10.435 -0.154,-0.73 -0.335,-1.269 -0.536,-1.481 m 0.802,-10.915 c 0.517,-0.248 0.991,-0.416 1.381,-0.459 0.057,-0.008 0.113,-0.01 0.167,-0.01 0.51,0 0.925,0.269 1.127,0.744 0.125,0.289 0.151,0.695 0.104,1.182 0.178,-0.036 0.35,-0.096 0.506,-0.223 1.745,-1.459 5.472,-9.631 5.064,-11.02 -2.41,0.344 -8.593,6.315 -9.005,7.94 -0.127,0.508 0.145,1.209 0.656,1.846 m -7.37,9.862 c 0.515,-0.403 0.998,-0.707 1.413,-0.839 0.146,-0.047 0.289,-0.069 0.428,-0.069 0.395,0 0.745,0.184 0.984,0.533 0.337,0.494 0.419,1.457 0.332,2.648 0.219,-0.021 0.434,-0.085 0.623,-0.24 1.745,-1.46 5.474,-9.63 5.066,-11.018 -2.411,0.343 -8.593,6.312 -9.006,7.94 -0.076,0.298 -0.009,0.664 0.16,1.045 m -25.823,29.565 c 0.101,0.418 0.511,0.822 1.073,1.13 0.169,0.03 0.337,0.085 0.495,0.194 0.019,0.013 0.037,0.041 0.056,0.056 0.394,0.147 0.823,0.252 1.261,0.285 0.389,0.027 1.662,0.052 2.021,-0.836 0.856,-2.104 0.339,-11.074 -0.663,-12.126 -1.966,1.456 -4.638,9.665 -4.243,11.297 m 0.447,15.505 h 0.008 c 0.393,0 1.659,-0.073 1.955,-0.982 0.701,-2.16 -0.457,-11.067 -1.53,-12.047 -1.695,1.459 -3.569,8.565 -3.493,11.006 0.097,-0.104 0.194,-0.213 0.291,-0.29 0.248,-0.2 0.523,-0.301 0.797,-0.301 0.235,0 0.47,0.075 0.687,0.224 0.496,0.343 0.919,1.225 1.263,2.388 0.007,0 0.015,0.002 0.022,0.002 m 6.857,23.562 c -0.187,-0.879 -0.24,-2.145 -0.177,-3.565 -0.339,-1.671 -0.884,-3.612 -1.457,-5.23 -0.332,0.075 -0.69,0.115 -1.072,0.112 -0.554,-0.002 -1.146,-0.101 -1.713,-0.276 -0.613,2.774 -0.857,6.473 -0.593,8.187 0.037,-0.06 0.07,-0.134 0.109,-0.188 0.258,-0.346 0.607,-0.53 0.985,-0.53 0.142,0 0.287,0.026 0.434,0.079 0.617,0.224 1.309,1.101 1.989,2.287 0.412,-0.083 1.171,-0.314 1.495,-0.876 m 3.558,26.761 c 0.128,-1.015 0.338,-1.863 0.655,-2.403 0.269,-0.454 0.685,-0.703 1.157,-0.703 0.114,0 0.23,0.015 0.349,0.043 0.776,0.193 1.744,1.242 2.723,2.67 0.045,-0.264 0.096,-0.527 0.145,-0.79 -1.162,-3.198 -4.089,-8.392 -5.169,-8.82 -0.893,1.631 -0.537,6.944 0.14,10.003 m 1.465,5.481 c 0.819,0.595 1.747,1.749 2.667,3.169 -0.01,-2.578 0.185,-4.911 0.425,-6.808 -1.062,-1.802 -2.091,-3.222 -2.66,-3.447 -0.656,1.2 -0.697,4.212 -0.432,7.086 m -1.339,11.331 c 0.016,10e-4 0.033,10e-4 0.048,0.002 1.375,0.127 3.634,2.514 5.655,5.227 0.104,-0.046 0.217,-0.105 0.34,-0.172 -0.06,-0.369 -0.112,-0.731 -0.156,-1.088 -0.972,-2.842 -1.501,-5.77 -1.73,-8.561 -1.486,-2.75 -3.103,-5.175 -3.906,-5.492 -0.902,1.652 -0.78,6.334 -0.251,10.084 m 3.129,15.402 v 0 c 0.3,0.279 0.802,0.414 1.39,0.414 0.553,0 1.18,-0.123 1.784,-0.358 0.155,-2.047 0.455,-3.885 0.911,-5.189 -2.041,-3.494 -5.955,-8.41 -7.209,-8.692 -0.988,2.706 1.687,12.49 3.124,13.825 m 14.143,-43.689 c -1.514,-3.958 -2.805,-5.416 -3.566,-5.952 -2.665,2.55 -5.936,10.068 -7.152,19.149 -0.801,5.986 -1.237,17.165 4.79,25.026 1.019,0.635 1.992,1.011 2.909,1.131 l -0.391,-35.113 2.389,34.926 c 0.524,-0.177 1.025,-0.461 1.504,-0.851 0.364,-1.329 0.817,-2.417 1.364,-3.094 0.314,-0.388 0.711,-0.59 1.136,-0.59 0.021,0 0.044,0.005 0.065,0.006 2.77,-7.122 0.768,-24.654 -3.048,-34.638 m -1.411,-71.253 c -0.055,-0.227 -0.067,-0.529 -0.057,-0.865 -1.905,2.155 -4.202,9.386 -3.834,10.908 0.125,0.516 0.722,1.014 1.498,1.331 1.158,-2.234 2.423,-4.43 3.793,-6.505 -0.053,-1.151 -0.149,-2.298 -0.282,-3.288 -0.548,-0.423 -0.966,-0.952 -1.118,-1.581 m -5.928,-1.319 c 0.226,-0.205 0.448,-0.383 0.656,-0.496 0.209,-0.114 0.424,-0.169 0.633,-0.169 0.307,0 0.6,0.121 0.839,0.361 0.312,0.308 0.53,0.896 0.68,1.653 0.375,-0.006 0.753,-0.112 1.017,-0.439 1.428,-1.77 3.508,-10.513 2.844,-11.804 -2.298,0.816 -7.212,7.889 -7.3,9.565 -0.024,0.409 0.224,0.888 0.631,1.329 m -14.17,43.087 c -0.15,-3.438 -0.954,-8.153 -1.719,-8.85 -1.854,1.597 -3.932,9.978 -3.423,11.579 0.25,0.783 1.62,1.445 2.992,1.45 0.335,0.04 1.299,-0.043 1.764,-0.628 -0.048,-0.897 0.099,-2.158 0.386,-3.551 m 1.901,12.85 c 0.257,-0.347 0.607,-0.532 0.985,-0.532 0.142,0 0.288,0.028 0.433,0.08 0.71,0.257 1.519,1.362 2.294,2.828 0.325,-0.094 0.716,-0.261 0.997,-0.54 -0.05,-1.337 -0.049,-2.644 0.009,-3.912 -0.28,-1.357 -0.692,-2.883 -1.143,-4.271 -0.435,0.152 -0.927,0.237 -1.472,0.237 H 8.158 c -0.582,-0.002 -1.204,-0.108 -1.793,-0.298 -0.42,2.34 -0.594,5.048 -0.459,6.682 0.055,-0.092 0.105,-0.197 0.162,-0.274 m 2.265,13.661 c 0.213,-1.841 0.597,-3.439 1.171,-4.218 0.257,-0.346 0.606,-0.529 0.985,-0.529 0.141,0 0.289,0.026 0.435,0.078 0.032,0.012 0.064,0.041 0.095,0.056 -0.997,-3.297 -2.985,-7.724 -3.906,-8.211 -1.077,1.557 -1.265,7.043 -0.884,10.127 0.464,0.706 0.928,1.583 1.37,2.548 0.221,0.074 0.47,0.121 0.734,0.149 m 11.092,-57.024 c -1.964,1.457 -4.637,9.664 -4.242,11.298 0.111,0.463 0.606,0.908 1.263,1.225 1.064,-2.871 2.336,-5.993 3.812,-9.135 -0.192,-1.674 -0.483,-3.02 -0.833,-3.388 m -9.551,9.54 c 0.043,0.178 0.148,0.351 0.29,0.518 0.012,-0.011 0.027,-0.028 0.04,-0.04 0.247,-0.2 0.522,-0.3 0.797,-0.3 0.235,0 0.471,0.075 0.687,0.225 0.311,0.214 0.589,0.657 0.841,1.232 0.076,0.009 0.152,0.025 0.228,0.029 0.201,0.015 0.638,0.025 1.063,-0.087 -0.062,-1.34 0.515,-3.748 1.371,-6.096 -0.092,-3.007 -0.504,-6.178 -1.075,-6.778 -1.965,1.456 -4.637,9.666 -4.242,11.297 m -5.452,13.358 H 4.43 c 0.335,0 1.292,-0.058 1.756,-0.629 -0.046,-0.897 0.1,-2.155 0.385,-3.547 -0.148,-3.438 -0.952,-8.154 -1.716,-8.851 -1.696,1.458 -3.569,8.565 -3.493,11.006 0.098,-0.105 0.195,-0.214 0.292,-0.291 0.246,-0.2 0.521,-0.3 0.796,-0.3 0.236,0 0.47,0.074 0.688,0.223 0.496,0.342 0.918,1.225 1.261,2.388 0.008,0 0.016,0.001 0.023,0.001 m 3.084,-0.797 c 0.097,-0.104 0.195,-0.212 0.291,-0.29 0.249,-0.2 0.523,-0.3 0.798,-0.3 0.235,0 0.471,0.073 0.686,0.223 0.497,0.342 0.92,1.224 1.264,2.389 0.008,0 0.014,0.001 0.021,0.001 h 0.008 c 0.396,0 1.661,-0.073 1.957,-0.982 0.7,-2.161 -0.459,-11.067 -1.533,-12.047 -1.694,1.459 -3.568,8.565 -3.492,11.006 m -2.335,12.366 c 0.25,0.782 1.619,1.445 2.99,1.449 h 0.008 c 0.395,0 1.66,-0.074 1.956,-0.983 0.701,-2.16 -0.458,-11.066 -1.531,-12.044 -1.856,1.596 -3.934,9.98 -3.423,11.578 m 2.903,-37.895 c -1.965,1.457 -4.636,9.667 -4.241,11.298 0.064,0.263 0.257,0.519 0.525,0.751 0.163,-0.076 0.329,-0.127 0.499,-0.127 0.234,0 0.47,0.074 0.687,0.223 0.211,0.147 0.407,0.408 0.591,0.731 0.192,0.04 0.386,0.072 0.583,0.086 0.067,0.006 0.158,0.009 0.268,0.009 0.438,0 1.129,-0.097 1.53,-0.541 0.024,-0.895 0.258,-2.128 0.638,-3.479 0.098,-3.442 -0.367,-8.201 -1.08,-8.951 m 11.509,-8.439 c -1.629,0.954 -4.097,5.861 -5.036,8.816 0.117,0.046 0.231,0.108 0.339,0.193 0.604,0.484 1.02,1.846 1.284,3.539 0.228,0.081 0.46,0.152 0.701,0.195 0.052,0.009 0.123,0.02 0.203,0.03 0.55,-0.935 1.11,-1.675 1.636,-2.038 0.102,-0.071 0.207,-0.119 0.313,-0.159 -0.087,-1.123 0.324,-3.086 0.996,-5.143 0.107,-2.523 -0.011,-4.88 -0.436,-5.433 m 0.071,65.552 c 0.558,-0.713 1.122,-1.306 1.685,-1.728 l 0.445,-0.333 0.524,0.182 c 1.611,0.559 3.144,2.465 4.575,5.652 -2.066,-8.635 0.159,-21.579 2.921,-28.282 -1.035,-3.504 -2.487,-7.024 -4.524,-10.199 -12.146,7.084 -15.49,22.028 -9.555,42.319 0.571,-1.56 1.196,-2.997 1.852,-4.277 l 2.096,-27.982 z m -6.278,12.679 c 0.175,-0.045 0.536,-0.158 0.877,-0.359 0.108,-0.411 0.222,-0.815 0.337,-1.217 -0.046,-0.151 -0.11,-0.343 -0.183,-0.573 -0.886,-2.762 -1.605,-5.433 -2.17,-8.015 -0.653,-1.334 -1.277,-2.339 -1.688,-2.555 -0.786,1.138 -1.099,4.381 -1.063,7.247 1.153,1.126 2.484,3.329 3.567,5.535 0.108,-0.019 0.217,-0.036 0.323,-0.063 M 2.225,-222.486 c 0.069,0.037 0.139,0.065 0.204,0.116 0.378,0.303 0.68,0.957 0.921,1.813 0.449,0.275 0.984,0.494 1.545,0.596 0.13,0.024 0.37,0.059 0.643,0.059 0.514,0 1.155,-0.122 1.448,-0.672 1.075,-2.003 1.508,-10.979 0.622,-12.129 -1.931,1.131 -5.043,7.82 -5.383,10.217 m 11.528,-7.312 c -1.756,1.029 -4.49,6.656 -5.227,9.471 0.11,0.045 0.218,0.1 0.318,0.182 0.508,0.405 0.88,1.437 1.145,2.756 0.329,0.148 0.684,0.266 1.052,0.334 0.13,0.023 0.367,0.058 0.641,0.058 0.138,0 0.283,-0.011 0.428,-0.034 0.308,-0.468 0.615,-0.859 0.914,-1.152 0.181,-0.76 0.477,-1.653 0.856,-2.601 0.462,-3.412 0.504,-8.194 -0.127,-9.014 m 24.21,-1.75 c -14.269,7.797 -22.471,37.748 -23.451,41.506 l 0.939,-0.122 c 1.115,-1.722 2.427,-3.291 3.934,-4.698 l 12.177,-26.238 -9.112,23.78 c 0.846,-0.582 1.736,-1.127 2.672,-1.629 l 0.827,-0.444 0.531,0.774 c 1.421,2.073 2.59,4.287 3.552,6.551 l 0.828,-0.109 c -0.035,-0.17 -0.085,-0.332 -0.112,-0.509 l -0.096,-0.047 c 0.005,-0.011 0.032,-0.067 0.07,-0.146 -0.848,-6.24 3.578,-16.244 6.646,-23.172 0.489,-1.105 0.937,-2.116 1.314,-3.002 l 0.064,-0.126 c 0.028,-0.048 0.115,-0.193 0.254,-0.413 0.49,-4.389 0.321,-8.594 -1.037,-11.956 m 7.413,46.033 c -0.741,-3.745 -2.014,-7.633 -3.827,-11.657 -5.756,1.201 -9.132,9.991 -9.206,10.174 -2.99,6.076 -5.76,20.948 -3.125,29.514 0.069,0.145 0.601,0.492 1.731,0.639 l 7.459,-33.05 -4.937,30.059 c 0.903,-1.439 1.989,-2.855 3.318,-4.171 l 0.517,-0.512 c 0.863,-3.415 3.871,-14.476 8.07,-20.996 m 58.892,22.626 c -2.758,1.244 -7.831,6.791 -10.698,10.407 -4.278,7.647 -7.999,24.103 -5.683,28.853 0.024,0.049 0.049,0.089 0.072,0.132 l 13.387,-32.592 -11.57,33.189 c 1.437,-0.699 4.133,-2.524 5.533,-4.014 0.758,-0.808 1.463,-1.637 2.141,-2.474 0.543,-6.352 5.829,-17.111 6.547,-18.548 l 0.133,-0.202 c 0.337,-0.404 0.905,-1.074 1.637,-1.904 0.262,-4.199 -0.219,-8.509 -1.499,-12.847 m 14.144,-24.032 c -3.511,1.177 -8.787,7.504 -10.586,9.933 -3.31,5.327 -4.039,9.235 -3.797,11.966 0.287,-0.097 0.565,-0.165 0.826,-0.192 l 0.848,-0.092 0.259,0.811 c 0.509,1.58 0.903,3.163 1.209,4.746 l 8.364,-22.977 -6.699,24.122 c 0.359,0.066 0.701,0.108 1.008,0.108 0.699,0 1.252,-0.138 1.59,-0.252 0.295,-0.099 0.635,-0.317 1.004,-0.643 0.121,-5.414 3.442,-12.685 5.562,-15.24 0.21,-0.218 0.782,-0.804 1.573,-1.578 0.544,-3.925 0.371,-7.854 -1.161,-10.712 m 18.038,-7.748 1.934,-8.594 0.051,-0.072 c 0.357,-2.814 0.423,-5.712 0.025,-8.539 -2.367,0.767 -6.844,4.455 -9.6,7.156 -2.976,3.23 -8.047,13.448 -7.814,18.615 0.229,0.659 0.398,1.341 0.535,2.033 0.256,0.376 0.609,0.627 1.063,0.778 l 14.005,-25.578 -11.96,25.938 c 0.721,0.084 1.418,0.137 2.062,0.137 0.197,0 0.389,-0.008 0.578,-0.015 1.732,-1.189 3.391,-2.06 4.649,-2.162 l 0.087,-0.007 c 1.145,-1.724 2.944,-5.272 4.385,-9.69 m 18.861,-0.634 c -1.929,0.233 -10.009,9.145 -10.878,12.071 -0.366,1.235 1.009,2.299 1.441,2.595 0.99,0.683 2.19,1.059 3.15,1.059 0.522,0 0.975,-0.111 1.282,-0.348 1.781,-1.36 5.838,-12.12 5.005,-15.377 m 6.313,-14.83 c -1.93,0.234 -10.012,9.146 -10.879,12.07 -0.367,1.235 1.01,2.299 1.441,2.596 0.01,0.006 0.02,0.011 0.03,0.018 1.262,-1.01 2.396,-1.654 3.207,-1.656 h 0.004 c 0.767,0 1.365,0.455 1.595,1.219 0.049,0.165 0.077,0.365 0.106,0.56 1.936,-2.607 5.256,-11.829 4.496,-14.807 m -3.32,-4.639 c -0.149,0.343 -0.272,0.663 -0.328,0.92 -0.276,1.258 1.173,2.219 1.625,2.484 0.085,0.05 0.175,0.086 0.263,0.132 0.719,-0.442 1.36,-0.699 1.869,-0.7 h 0.006 c 0.768,0 1.365,0.457 1.594,1.221 0.01,0.026 0.01,0.061 0.018,0.087 0.289,-0.074 0.537,-0.187 0.722,-0.35 1.307,-1.161 3.576,-8.118 4.008,-12.639 -3.371,3.382 -6.853,6.45 -9.777,8.845 m -15.43,3.518 3.08,-0.184 23.096,-23.917 -20.266,23.747 1.953,-0.117 c 3.592,-2.039 31.12,-24.221 28.565,-35.044 -11.34,4.499 -31.625,28.947 -36.428,35.515 m -82.922,43.572 c 0.348,1.197 1.129,2.28 2.435,3.368 l 10.709,-24.896 -9.05,26.099 c 0.58,0.374 1.207,0.752 1.926,1.14 0.829,0.056 3.863,-1.232 6.137,-2.403 -0.545,-4.009 1.584,-9.889 6.344,-17.519 0.169,-5.425 -0.783,-10.002 -2.596,-12.289 -1.394,0.025 -6.246,4.979 -11.103,12.068 -3.655,6.54 -5.734,11.235 -4.802,14.432 m 28.932,-20.99 -10.86,27.215 c 2.533,-0.342 7.228,-1.541 9.696,-4.173 0.262,-0.28 0.555,-0.683 0.867,-1.182 -0.087,-0.424 -0.158,-0.859 -0.197,-1.317 -0.488,-5.763 2.946,-12.685 5.276,-15.493 0.216,-2.884 0.045,-5.728 -0.744,-8.204 -1.64,-0.323 -7.202,4.357 -12.229,10.294 -5.759,9.038 -6.848,14.016 -6.54,16.724 0.009,0 0.015,-0.002 0.023,-0.003 l 0.727,-0.046 0.296,0.665 c 0.312,0.699 0.599,1.452 0.87,2.235 z m 15.56,-0.166 c -2.011,-0.292 -6.341,3.364 -8.814,6.152 -2.042,2.137 -5.612,8.96 -5.153,14.38 0.18,2.13 0.987,3.744 2.401,4.793 0.158,0.119 0.536,0.244 1.069,0.342 l 8.403,-21.143 -6.289,21.31 c 0.775,-0.002 1.636,-0.065 2.534,-0.223 1.467,-0.26 2.645,-0.73 3.378,-1.327 -0.346,-3.15 0.399,-7.622 4.122,-13.608 0.067,-0.09 0.194,-0.259 0.346,-0.458 0.011,-3.059 -0.523,-6.501 -1.997,-10.218 m 15.014,-30.318 3.204,-0.08 22.218,-25.029 -19.653,24.964 5.973,-0.15 c 5.051,-7.313 27.723,-35.3 48.199,-42.077 -3.281,-0.438 -10.334,-0.711 -20.25,2.511 -12.224,2.647 -36.356,34.631 -39.691,39.861 m -17.131,-1.28 4.512,-0.749 22.105,-24.427 -19.044,23.919 6.598,-1.096 c 2.102,-2.731 24.372,-31.376 36.491,-35.608 -2.066,-0.979 -7.246,-2.563 -15.256,0.603 -5.136,2.031 -30.23,31.198 -35.406,37.358 m -14.427,6.339 c -3.641,6.124 -7.971,19.326 -5.007,23.781 l 10.164,-27.091 -8.25,27.109 c 1.18,-0.492 2.656,-1.231 3.619,-2.028 0.662,-0.548 1.297,-1.312 1.909,-2.244 -0.127,-4.52 2.805,-10.576 5.096,-15.034 0.733,-3.77 1.341,-8.033 1.794,-12.735 -2.541,-0.449 -7.303,5.214 -9.325,8.242 m 27.034,0.086 -8.501,24.528 c 0.319,0.815 0.598,1.618 0.837,2.409 1.035,0.172 2.037,0.159 2.552,-0.283 0.313,-0.343 0.807,-1.427 1.391,-2.988 -1.306,-5.329 1.145,-12.099 4.898,-17.658 0.857,-4.368 1.241,-8.14 0.599,-9.723 -2.02,0.839 -6.027,4.51 -8.526,7.168 -2.885,4.055 -5.685,13.949 -4.896,19.735 0.325,-0.067 0.646,-0.113 0.957,-0.113 0.243,0 0.48,0.023 0.712,0.069 z m -20.529,20.607 0.254,0.191 0.107,0.299 c 0.094,0.272 0.18,0.55 0.262,0.829 l 10.293,-22.717 -9.064,24.852 3.324,0.873 c 0.417,-0.286 0.842,-0.547 1.269,-0.784 0.121,-0.152 0.252,-0.343 0.393,-0.579 -0.954,-6.732 2.344,-17.321 5.28,-21.395 l 0.087,-0.104 c 0.119,-0.127 0.298,-0.315 0.507,-0.532 0.103,-2.226 -0.021,-4.292 -0.469,-6.009 -3.473,0.983 -6.881,5.275 -7.4,5.95 -0.299,0.677 -0.777,1.603 -1.375,2.758 -2.092,4.042 -6.031,11.67 -5.373,15.934 0.131,-0.014 0.266,-0.042 0.392,-0.042 0.565,0 1.076,0.148 1.513,0.476 m -17.252,-24.323 c -3.495,3.764 -7.518,14.007 -7.23,20.599 0.069,1.555 0.371,2.804 0.891,3.744 l 10.954,-24.698 -8.129,22.747 c 0.88,-0.561 1.705,-0.897 2.424,-0.897 0.278,0 0.54,0.05 0.784,0.152 l 0.218,0.093 0.158,0.178 c 1.105,1.248 1.925,3.033 2.481,5.164 0.122,-0.379 0.254,-0.805 0.399,-1.276 -1.232,-6.239 2.413,-16.431 5.209,-21.809 0.77,-4.565 1.112,-8.474 0.55,-10.338 -0.949,-0.39 -4.901,2.487 -8.709,6.341 m 100.864,-38.174 c -5.77,0.15 -15.707,7.086 -28.141,19.671 -9.643,9.755 -17.379,19.477 -19.135,22.547 l 2.746,-0.299 23.016,-25.498 -20.176,25.188 4.524,-0.492 c 0.718,-0.642 4.423,-3.97 9.244,-8.564 5.195,-6.032 11.681,-13.004 17.801,-18.238 4.812,-5.466 8.738,-10.655 10.121,-14.315 m -42.961,79.789 c 10.341,-8.319 15.533,-25.937 14.349,-32.296 -5.047,1.218 -8.408,5.189 -9.076,6.038 l -4.623,20.55 11.211,-22.705 z m -8.089,-29.598 c 0.646,-3.513 1.022,-7.038 0.915,-10.16 -2.111,0.766 -5.828,4.028 -8.108,6.436 -5.466,6.682 -9.036,16.171 -5.283,21.38 0.01,0.016 0.025,0.034 0.036,0.048 l 10.577,-24.603 -8.308,24.11 c 0.679,-0.332 1.343,-0.563 1.975,-0.655 l 0.464,-0.068 c 1.11,-5.876 5.122,-13.367 7.732,-16.488 m -49.724,83.128 6.778,-29.466 -5.083,30.808 c 0.073,0.027 0.151,0.052 0.231,0.078 0.142,0.021 0.281,0.057 0.416,0.124 0.525,0.142 1.119,0.248 1.668,0.248 0.507,0 0.973,-0.089 1.298,-0.325 v 10e-4 c 0.98,-0.71 1.968,-1.803 2.918,-3.183 -1.632,-6.952 2.403,-22.275 6.27,-29.199 -0.412,-3.107 -1.219,-6.124 -2.52,-8.892 -7.094,3.506 -10.73,10.256 -10.752,10.295 -3.06,6.324 -6.312,23.175 -1.224,29.511 M 63.932,-227.637 c -3.005,0.994 -7.681,6.604 -10.12,10.218 -3.717,6.325 -8.899,21.609 -8.439,23.851 0.519,0.329 2.048,0.243 3.835,-0.051 l 9.431,-26.14 -7.391,25.739 c 1.198,-0.267 2.384,-0.587 3.371,-0.908 1.027,-0.852 2.042,-1.621 2.975,-2.216 0.02,-0.04 0.037,-0.074 0.057,-0.114 0.105,-4.417 2.999,-11.799 4.9,-16.192 1.14,-5.332 1.845,-10.689 1.381,-14.187 m 11.025,0.538 c -1.559,0.635 -5.497,5.463 -8.925,11.026 -3.628,7.566 -5.771,14.235 -6.225,17.843 0.058,-0.017 0.124,-0.049 0.18,-0.062 l 0.672,-0.157 0.409,0.554 c 0.556,0.751 1.023,1.584 1.425,2.471 l 9.159,-26.323 -7.473,27.504 c 1.345,0.346 2.639,0.532 3.296,0.274 0.675,-0.265 1.248,-0.478 1.751,-0.638 -0.19,-0.738 -0.309,-1.561 -0.348,-2.475 -0.266,-6.083 2.823,-14.695 6.035,-19.456 0.583,-4.803 0.726,-8.909 0.044,-10.561 m -3.228,125.314 c 0.28,1.461 2.433,2.891 4.797,3.188 0.282,0.034 0.553,0.052 0.812,0.052 0.987,0 1.785,-0.265 2.34,-0.731 -0.4,-0.486 -0.69,-1.026 -0.805,-1.619 -0.286,-1.487 0.701,-5.254 2.224,-9.07 -0.161,-4.524 -0.806,-9 -1.895,-9.974 -0.159,-0.141 -0.257,-0.149 -0.447,-0.032 -3.19,1.957 -7.591,15.256 -7.026,18.186 m -7.48,-17.498 c 0.22,0.157 0.733,0.379 1.375,0.591 l 3.411,-33.356 -1.375,32.483 c 0.442,-0.542 0.874,-0.967 1.29,-1.225 0.264,-0.163 0.535,-0.245 0.799,-0.245 0.324,0 0.636,0.123 0.912,0.367 0.31,0.273 0.574,0.734 0.805,1.328 1.006,-1.045 1.882,-2.588 2.619,-4.501 -3.471,-7.967 -0.634,-21.929 2.123,-28.332 -0.529,-3.854 -1.39,-7.459 -2.612,-10.441 -4.124,0.98 -8.302,8.015 -10.715,14.882 -1.818,5.167 -7.091,22.486 1.368,28.449 m -21.927,-41.776 c 1.029,0.349 2.205,0.603 3.445,0.706 l 11.059,-29.771 -9.024,29.79 c 1.838,-0.11 3.718,-0.6 5.423,-1.626 0.92,-1.043 1.914,-1.957 2.976,-2.652 0.572,-0.75 1.139,-1.667 1.683,-2.725 -0.899,-3.527 0.756,-7.885 4.066,-14.007 0.648,-5.482 0.214,-10.981 -2.133,-14.677 -2.777,1.27 -8.33,6.596 -11.594,10.096 -4.912,6.128 -8.603,20.743 -9.064,22.611 0.477,0.425 0.939,0.915 1.38,1.47 0.462,0.262 1.039,0.533 1.783,0.785 m -23.273,64.361 c 1.171,-3.709 2.714,-7.096 4.276,-8.351 0.272,-0.217 0.562,-0.323 0.855,-0.352 -1.882,-5.21 -5.106,-11.888 -6.784,-12.35 -0.087,-0.024 -0.158,-0.041 -0.289,0.168 -1.423,2.272 -1.674,9.761 -1.117,14.951 0.894,1.594 1.777,3.649 2.557,5.798 0.16,0.055 0.328,0.098 0.502,0.136 m -15.8,-57.032 c 0.971,0.92 2.074,2.629 3.053,4.473 -0.086,-2.37 0.105,-4.588 0.707,-5.612 0.136,-0.231 0.316,-0.396 0.522,-0.503 -1.053,-2.859 -2.489,-5.817 -3.232,-6.209 -0.845,1.218 -1.141,4.851 -1.05,7.851 m 16.457,-88.725 c -2.298,0.816 -7.211,7.885 -7.302,9.563 -0.03,0.548 0.424,1.22 1.105,1.758 0.096,-0.022 0.193,-0.037 0.288,-0.037 0.306,0 0.599,0.123 0.839,0.361 0.113,0.114 0.215,0.268 0.305,0.449 0.241,0.076 0.557,0.15 0.875,0.15 0.256,0 0.511,-0.055 0.735,-0.184 0.275,-0.856 0.86,-1.981 1.622,-3.178 1.084,-3.269 2.005,-7.962 1.533,-8.882 m 109.632,-19.026 c -2.63,0.105 -5.588,0.587 -8.318,1.878 -8.162,3.852 -25.292,29.635 -28.832,35.658 1.148,-0.481 2.942,-1.151 5.121,-1.711 l 17.457,-22.56 -14.722,21.975 c 1.344,-0.234 2.767,-0.406 4.246,-0.452 1.971,-1.251 6.375,-6.783 11.036,-12.632 7.089,-8.904 15.031,-18.875 20.2,-21.772 -1.205,-0.195 -2.998,-0.406 -5.062,-0.406 l -1.486,0.182 z m 48.933,25.446 c -2.143,3.516 -5.131,7.132 -8.35,10.522 0.01,0.239 0.012,0.488 0.006,0.746 0.441,0.421 0.982,0.698 1.232,0.81 0.455,0.206 0.934,0.347 1.408,0.437 1.293,-1.247 2.487,-2.085 3.358,-2.151 0.047,-0.004 0.094,-0.006 0.139,-0.006 0.128,0 0.247,0.028 0.367,0.054 0.883,-2.443 1.724,-6.93 1.84,-10.412 m -13.483,43.534 c 0.051,0.164 0.078,0.363 0.108,0.559 1.935,-2.608 5.253,-11.83 4.496,-14.808 -1.373,0.167 -5.862,4.73 -8.647,8.405 -0.744,1.754 -1.543,3.256 -2.279,4.21 0.082,0.993 1.119,1.8 1.484,2.052 0.012,0.007 0.022,0.012 0.033,0.018 1.262,-1.01 2.397,-1.655 3.207,-1.657 h 0.004 c 0.77,0 1.366,0.457 1.594,1.221 m -16.852,25.325 c 0.747,0.194 1.21,0.787 1.239,1.585 0.002,0.093 -0.018,0.208 -0.022,0.308 1.596,-1.673 4.147,-5.933 5.579,-9.472 -0.764,-0.244 -1.497,-0.59 -2.114,-1.016 -0.429,-0.296 -0.797,-0.619 -1.109,-0.957 -1.867,1.334 -3.951,3.05 -5.6,4.627 -0.894,1.422 -1.801,2.662 -2.605,3.499 -0.094,0.237 -0.192,0.478 -0.291,0.722 0.129,0.715 0.656,1.359 0.978,1.693 1.358,-0.641 2.567,-1.049 3.428,-1.049 0.189,0 0.363,0.019 0.517,0.06 m -17.314,11.453 c 0.02,0 0.041,-0.004 0.061,-0.004 0.767,0 1.466,0.182 2.039,0.615 0.174,0.133 0.324,0.289 0.464,0.456 3.137,-3.723 6.819,-8.662 8.711,-13.255 3.743,-9.073 2.823,-11.009 2.252,-11.419 -1.117,-0.809 -4.443,1.255 -6.453,2.987 -2.617,2.175 -12.894,15.91 -13.041,20.814 -0.021,0.684 0.028,1.32 0.102,1.929 1.172,-0.69 2.493,-1.354 3.773,-1.752 l 11.235,-17.585 z m -20.964,25.638 c 2.201,-6.176 6.497,-14.207 9.581,-18.604 0.819,-3.53 1.281,-7.285 1.354,-11.206 -3.556,0.892 -10.698,8.14 -14.779,13.005 -2.93,5.885 -6.982,15.863 -6.272,19.346 l 12.972,-22.899 -11.804,24.358 c 0.207,-0.056 0.408,-0.095 0.589,-0.098 h 0.035 c 0.863,0 1.536,0.5 1.829,1.336 2.383,-1.428 4.552,-3.193 6.495,-5.238 M 88.543,-99.33 c 1.504,-3.203 1.594,-17.816 -0.315,-19.523 -0.105,-0.095 -0.185,-0.14 -0.404,-0.005 -3.404,2.09 -8.347,15.013 -7.822,17.746 0.201,1.046 1.368,2.069 2.878,2.677 0.174,-0.115 0.348,-0.219 0.515,-0.299 0.252,-0.122 0.501,-0.182 0.741,-0.182 0.403,0 0.776,0.169 1.077,0.5 0.13,0.143 0.244,0.329 0.348,0.54 1.448,0.013 2.536,-0.505 2.982,-1.454 m -51.018,-54.453 1.407,31.68 c 0.237,0.033 0.476,0.11 0.703,0.267 0.749,0.517 1.451,1.852 2.067,3.611 0.9,-0.243 1.64,-0.507 2.071,-0.674 0.333,-1.087 0.611,-2.248 0.848,-3.456 -0.615,-4.729 -0.184,-13.27 0.39,-19.35 -1.092,-9.001 -3.763,-17.155 -7.368,-20.174 -6.226,6.74 -6.319,16.147 -6.319,16.241 0.003,1.672 0.017,3.371 0.043,5.058 0.685,5.07 0.945,10.232 0.54,14.501 0.25,3.606 0.572,6.144 0.948,6.716 0.703,0.736 1.573,1.186 2.512,1.446 0.202,-0.495 0.41,-0.962 0.627,-1.393 z M 4.924,-100.81 c 0.821,1.266 1.649,2.958 2.418,4.814 0.538,0.209 1.181,0.331 1.876,0.345 0.333,-4.032 1.127,-7.88 2.433,-9.496 0.233,-0.289 0.512,-0.474 0.813,-0.558 -2.114,-4.811 -5.246,-10.21 -6.807,-10.641 -0.137,-0.037 -0.227,-0.044 -0.364,0.175 -1.536,2.452 -1.272,10.348 -0.369,15.361 m -9.236,-123.636 c 0.003,0.021 0.014,0.042 0.018,0.063 0.191,0.036 0.379,0.104 0.548,0.24 0.27,0.216 0.499,0.623 0.697,1.14 0.425,0.243 0.923,0.432 1.436,0.526 0.132,0.023 0.37,0.058 0.643,0.058 0.514,0 1.155,-0.123 1.448,-0.671 1.074,-2.003 1.507,-10.979 0.622,-12.131 -2.108,1.237 -5.633,9.108 -5.412,10.774 z m 12.186,-23.647 c -2.226,0.998 -6.559,8.437 -6.517,10.117 0.022,0.833 1.164,1.867 2.494,2.259 0.213,0.064 0.569,0.147 0.94,0.147 0.347,0 0.704,-0.078 0.979,-0.308 -0.142,-0.352 -0.223,-0.722 -0.202,-1.096 0.048,-0.889 0.825,-2.475 1.918,-4.166 0.555,-2.988 0.828,-6.242 0.388,-6.953 m 165.406,58.424 c 1.959,-3.063 4.932,-11.565 4.211,-14.398 -1.39,0.169 -5.957,4.828 -8.736,8.519 -0.691,1.707 -1.444,3.225 -2.158,4.295 0.193,0.9 1.113,1.618 1.455,1.853 0.209,0.144 0.431,0.267 0.656,0.384 1.223,-0.964 2.32,-1.577 3.109,-1.579 h 0.004 c 0.658,0 1.176,0.35 1.459,0.926 m -57.599,59.719 c 0.809,-0.38 1.53,-0.6 2.112,-0.6 0.075,0 0.147,0.004 0.218,0.011 0.959,0.099 1.642,0.744 1.828,1.725 0.002,0.004 0.002,0.008 0.002,0.01 3.873,-4.767 8.044,-10.445 9.795,-14.693 3.385,-8.21 2.109,-9.728 1.818,-9.948 -1.289,-0.976 -5.91,1.56 -8.789,3.787 -3.254,3.312 -10.204,16.252 -11.946,23.019 0.741,-0.599 1.473,-1.156 2.182,-1.651 l 12.203,-17.342 z m -34.525,50.127 c 0.27,-1.01 1.521,-2.705 3.255,-4.573 0.814,-5.422 1.059,-11.964 -0.08,-13.214 -0.098,-0.108 -0.176,-0.164 -0.416,-0.048 -1.967,0.946 -4.686,4.938 -6.79,8.934 0.042,4.561 -0.424,9.338 -1.094,11.332 0.737,0.479 1.612,0.864 2.541,1.078 1.267,0.293 2.361,0.193 3.142,-0.241 -0.575,-1.069 -0.839,-2.215 -0.558,-3.268 m -32.409,-2.87 c 0.108,0.551 0.482,1.097 1.024,1.583 0.045,-0.041 0.09,-0.088 0.137,-0.125 0.289,-0.233 0.602,-0.348 0.913,-0.348 0.265,0 0.532,0.085 0.781,0.257 0.434,0.299 0.831,0.911 1.186,1.739 0.317,0.078 0.641,0.141 0.968,0.181 1.782,0.214 3.166,-0.271 3.771,-1.292 -0.59,-0.591 -1.028,-1.271 -1.175,-2.039 -0.303,-1.57 0.759,-5.584 2.384,-9.613 -0.096,-4.17 -0.59,-8.012 -1.535,-8.847 -0.111,-0.095 -0.193,-0.143 -0.42,-0.003 -3.529,2.195 -8.597,15.665 -8.034,18.507 m -29.074,19.179 c 0.621,-2.567 1.478,-4.86 2.473,-5.811 0.242,-0.234 0.52,-0.352 0.803,-0.352 0.188,0 0.378,0.052 0.563,0.156 0.251,0.142 0.495,0.403 0.735,0.749 0.091,-0.791 0.229,-1.66 0.406,-2.576 -0.784,-5.123 -2.542,-11.496 -3.966,-12.304 -0.114,-0.064 -0.197,-0.097 -0.378,0.078 -2.113,2.026 -3.779,10.18 -3.97,14.98 0.894,1.037 1.852,2.882 2.703,4.924 0.205,0.06 0.413,0.113 0.631,0.156 m -7.162,0.107 c 0.238,-2.419 0.721,-4.571 1.498,-5.591 0.242,-0.318 0.557,-0.484 0.9,-0.484 0.126,0 0.256,0.028 0.388,0.074 0.09,-1.428 0.285,-3.045 0.565,-4.683 -1.585,-4.375 -3.766,-8.85 -5.075,-9.344 -0.127,-0.048 -0.211,-0.061 -0.362,0.135 -1.658,2.177 -2.102,9.587 -1.7,14.441 0.911,1.205 1.869,3.167 2.7,5.256 0.339,0.095 0.705,0.161 1.086,0.196 m -16.529,-32.77 c 0.023,0.005 0.043,0.003 0.066,0.01 0.693,0.19 1.5,0.909 2.35,1.959 0.14,0.028 0.281,0.051 0.428,0.069 0.345,-3.58 1.07,-6.852 2.23,-8.319 0.326,-0.412 0.741,-0.627 1.189,-0.627 0.191,0 0.387,0.039 0.585,0.117 0.182,0.073 0.37,0.193 0.56,0.342 -2.067,-5.116 -5.72,-11.684 -7.447,-12.16 -0.137,-0.037 -0.227,-0.044 -0.364,0.174 -1.919,3.06 -1.031,14.61 0.403,18.435 m 4.295,-28.104 c 0.177,-0.08 0.367,-0.137 0.578,-0.137 0.049,0 0.098,0.003 0.148,0.008 1.187,0.108 3.036,1.911 4.822,4.147 0.329,-0.15 0.769,-0.397 1.105,-0.753 -0.214,-1.429 -0.317,-2.771 -0.248,-3.838 -1.521,-4.015 -5.023,-10.185 -6.341,-10.707 -1.002,1.834 -0.742,7.398 -0.064,11.28 m -3.78,-28.739 c 0.937,0.886 1.996,2.508 2.95,4.278 0.22,-0.012 0.441,-0.042 0.661,-0.087 -0.031,-2.126 0.178,-4.05 0.726,-4.982 0.092,-0.156 0.207,-0.275 0.332,-0.377 -1.052,-3.17 -2.804,-6.957 -3.652,-7.404 -0.912,1.319 -1.184,5.459 -1.017,8.572 m -9.763,-18.899 c 0.027,0.052 0.065,0.101 0.102,0.149 0.224,-0.195 0.489,-0.297 0.772,-0.297 0.141,0 0.288,0.025 0.434,0.079 0.377,0.136 0.783,0.528 1.196,1.071 0.219,-0.001 0.441,-0.017 0.661,-0.05 0.36,-0.057 1.49,-0.307 1.749,-1.132 -0.116,-0.718 -0.159,-1.64 -0.138,-2.664 -0.447,-2.539 -1.498,-6.027 -2.388,-7.894 -0.453,-0.006 -0.93,-0.073 -1.397,-0.193 -0.229,0.574 -0.43,1.291 -0.602,2.081 -0.04,0.461 -0.1,0.838 -0.184,1.094 -0.013,0.04 -0.034,0.076 -0.049,0.115 -0.517,3.087 -0.621,6.717 -0.156,7.641 m 27.58,-77.363 c -0.112,0.433 0.081,1.013 0.46,1.57 0.187,0.09 0.355,0.227 0.488,0.42 0.059,0.086 0.101,0.207 0.145,0.322 0.216,0.201 0.45,0.395 0.704,0.553 0.284,0.178 0.86,0.481 1.42,0.467 0.529,-0.985 1.646,-2.311 2.99,-3.619 1.56,-2.936 3.064,-6.744 2.798,-7.655 -2.408,0.346 -8.592,6.315 -9.005,7.942 m 181.175,-8.467 c 0.303,-1.285 0.737,-2.781 1.258,-4.314 -0.113,-1.54 -0.303,-3.024 -0.586,-4.239 -0.619,0.383 -1.142,0.703 -1.527,0.936 l -2.129,1.287 c -0.932,2.131 -1.84,4.643 -2.428,6.76 0.524,0.017 0.996,0.285 1.324,0.779 0.637,0.965 1.022,2.783 1.203,4.914 0.854,-2.305 1.87,-4.551 2.885,-6.123 m -10.707,57.091 c -1.904,0.394 -9.213,9.95 -9.832,12.937 -0.23,1.11 0.867,1.973 1.446,2.343 1.345,-1.106 2.56,-1.825 3.414,-1.826 h 0.004 c 0.769,0 1.365,0.456 1.595,1.22 0.045,0.151 0.069,0.336 0.096,0.513 1.713,-2.693 4.289,-12.265 3.277,-15.187 m -50.584,68.723 c 2.199,-3.374 4.418,-7.81 4.307,-9.86 -1.883,-0.146 -11.592,7.035 -13.01,9.737 -0.154,0.294 -0.19,0.598 -0.157,0.895 2.651,-1.243 5.188,-2.136 6.8,-2.136 0.367,0 0.687,0.047 0.949,0.146 0.582,0.22 0.967,0.657 1.111,1.218 m -1.927,0.597 c -1.432,-0.343 -7.419,2.369 -11.707,4.974 -0.335,0.404 -0.663,0.797 -0.987,1.182 -0.402,1.842 -1.131,3.996 -2.033,6.154 0.571,0.585 1.221,1.045 1.849,1.328 1.61,-0.768 3.195,-1.441 4.65,-1.949 3.358,-3.203 7.921,-8.997 8.228,-11.689 m -4.033,10.177 c -0.17,0.197 -0.341,0.386 -0.512,0.576 0.213,-0.024 0.418,-0.04 0.614,-0.048 -0.046,-0.177 -0.075,-0.352 -0.102,-0.528 M 88.206,-73.47 c 0.159,-0.014 0.314,-0.039 0.463,-0.079 0.72,-0.688 1.464,-1.356 2.215,-1.988 3.194,-4.329 8.051,-14.728 7.179,-16.849 -0.055,-0.136 -0.112,-0.218 -0.375,-0.188 -4.136,0.411 -14.628,10.262 -15.377,13.06 -0.306,1.139 0.419,2.751 1.698,4.054 0.758,-0.597 1.473,-1.048 2.097,-1.247 0.174,-0.055 0.343,-0.082 0.504,-0.082 0.448,0 0.837,0.208 1.109,0.607 0.367,0.537 0.509,1.497 0.487,2.712 m -20.145,14.736 c 0.669,0.315 1.422,0.549 2.207,0.648 0.201,0.025 0.39,0.031 0.579,0.037 1.068,-1.501 2.285,-2.987 3.458,-4.188 0.087,-0.245 0.19,-0.506 0.313,-0.785 0.601,-5.276 0.327,-13.817 -1.074,-15.072 -0.101,-0.09 -0.176,-0.134 -0.386,-0.004 -2.355,1.444 -5.479,8.311 -6.837,12.988 0.127,0.05 0.249,0.123 0.363,0.224 0.854,0.764 1.265,3.291 1.377,6.152 m -8.682,-0.688 c 0.255,0.032 0.505,0.047 0.742,0.047 0.552,0 1.027,-0.103 1.451,-0.258 0.623,-1.287 1.292,-2.483 1.956,-3.438 0.792,-5.03 0.548,-15.019 -0.987,-16.377 -0.1,-0.088 -0.177,-0.133 -0.385,-0.002 -2.662,1.656 -6.277,10.291 -7.2,14.777 0.483,-0.636 0.956,-1.138 1.392,-1.409 0.215,-0.134 0.436,-0.2 0.649,-0.2 0.26,0 0.51,0.097 0.73,0.292 0.896,0.793 1.32,3.513 1.426,6.528 0.076,0.012 0.149,0.032 0.226,0.04 m -12.263,9.798 h 0.006 c 1.429,-0.002 2.458,-0.544 2.751,-1.451 0.022,-0.071 0.043,-0.15 0.062,-0.232 v -10e-4 c -0.108,-0.54 -0.021,-1.39 0.197,-2.407 0.004,-4.292 -1.113,-11.506 -2.407,-12.4 -0.09,-0.062 -0.156,-0.089 -0.312,0.035 -1.504,1.208 -3.056,5.688 -3.859,9.409 0.131,2.293 0.072,4.268 -0.199,5.104 -0.027,0.085 -0.069,0.161 -0.104,0.24 0.553,0.96 2.18,1.703 3.865,1.703 M 33.854,-71.232 c -0.358,-5.117 -1.528,-11.375 -2.848,-12.287 -0.112,-0.075 -0.192,-0.11 -0.383,0.043 -2.657,2.133 -5.437,12.574 -5.423,16.606 0.236,0.606 0.46,1.284 0.669,2.003 0.572,0.604 1.493,1.096 2.559,1.37 0.856,-2.594 1.943,-4.912 3.048,-5.799 0.235,-0.188 0.49,-0.283 0.743,-0.283 0.217,0 0.433,0.069 0.636,0.209 0.187,0.129 0.365,0.335 0.534,0.595 0.121,-0.776 0.278,-1.604 0.465,-2.457 m -10.589,16.618 c 0.074,-0.004 0.152,-0.006 0.234,-0.006 0.769,0 1.899,0.193 3.074,0.449 0.459,-3.015 -1.81,-13.612 -3.501,-14.572 -0.095,-0.053 -0.163,-0.077 -0.307,0.062 -2.244,2.153 -3.87,12.794 -3.018,14.785 0.364,0.857 1.649,1.495 3.098,1.627 -10e-4,-0.618 -0.017,-1.217 -0.07,-1.773 l -0.049,-0.539 z m -9.628,0.081 c 0.11,0.51 0.24,0.909 0.391,1.15 0.448,0.718 1.621,1.143 2.923,1.143 0.476,0 0.969,-0.058 1.453,-0.178 0.386,-0.096 0.727,-0.228 1.027,-0.386 -0.207,-0.223 -0.388,-0.464 -0.507,-0.74 -0.47,-1.1 -0.325,-4.205 0.222,-7.408 -1.291,-3.564 -3.066,-7.212 -4.133,-7.614 -0.101,-0.037 -0.172,-0.05 -0.293,0.11 -1.211,1.588 -1.622,6.592 -1.46,10.459 0.326,1.302 0.504,2.371 0.463,2.96 -0.012,0.173 -0.043,0.341 -0.086,0.504 m -9.058,-9.051 c 0.222,-2.593 0.713,-4.944 1.537,-6.025 0.196,-0.258 0.443,-0.41 0.712,-0.461 -1.393,-5.138 -4.635,-12.714 -6.363,-13.365 -0.124,-0.048 -0.212,-0.061 -0.361,0.135 -1.699,2.23 -2.122,9.949 -1.667,14.79 1.485,0.564 3.29,3.028 4.606,5.123 0.507,-0.013 1.026,-0.073 1.536,-0.197 m -9.215,-71.893 c 0.86,0.931 1.786,2.294 2.669,3.819 0.061,-2.07 0.339,-3.853 0.9,-4.807 0.243,-0.415 0.6,-0.671 1.008,-0.758 -1.485,-3.009 -3.401,-6.082 -4.26,-6.424 -0.74,1.353 -0.699,5.006 -0.317,8.17 m -0.435,-9.48 c 0.199,-0.125 0.425,-0.19 0.666,-0.19 0.113,0 0.23,0.014 0.349,0.043 1.123,0.279 2.648,2.335 4.027,4.774 0.446,-0.271 0.926,-0.709 0.899,-1.335 -0.102,-2.265 -4.31,-10.178 -5.655,-10.71 -0.671,1.229 -0.635,4.547 -0.286,7.418 m -6.042,-12.912 c 0.212,-1.845 0.597,-3.445 1.172,-4.223 0.257,-0.346 0.607,-0.531 0.985,-0.531 0.141,0 0.289,0.027 0.435,0.079 0.031,0.012 0.064,0.041 0.095,0.056 -0.997,-3.296 -2.984,-7.724 -3.907,-8.21 -1.396,2.017 -1.301,10.665 -0.405,12.081 0.256,0.406 0.884,0.667 1.625,0.748 m -5.854,-7.795 c 0.14,0.277 0.379,0.472 0.667,0.598 0.051,-0.008 0.102,-0.022 0.156,-0.022 0.102,0 0.207,0.013 0.312,0.038 0.109,0.027 0.226,0.09 0.343,0.152 0.048,0.002 0.094,0.013 0.141,0.013 0.157,0 0.313,-0.013 0.462,-0.036 0.053,-0.008 0.108,-0.022 0.162,-0.035 0.076,-2.149 0.361,-4.267 0.869,-5.621 -0.246,-0.213 -0.46,-0.453 -0.604,-0.739 -0.371,-0.736 -0.495,-2.312 -0.428,-4.143 -0.314,-0.84 -0.628,-1.56 -0.914,-2.059 -0.229,0.038 -0.463,0.064 -0.707,0.067 -0.071,0 -0.139,-0.01 -0.209,-0.014 -1.053,2.747 -1.034,10.245 -0.25,11.801 m 63.04,-122.015 c 0.149,0.719 0.625,1.561 1.309,2.186 0.125,0.115 0.326,0.275 0.56,0.42 0.322,-0.071 0.626,-0.119 0.886,-0.119 0.06,0 0.117,0.002 0.173,0.006 0.185,0.011 0.348,0.068 0.496,0.14 0.471,-0.486 1.083,-1.017 1.793,-1.561 2.282,-2.595 5.216,-7.125 5.093,-8.216 -0.026,-0.002 -0.05,-0.002 -0.076,-0.002 -2.297,0 -8.388,3.945 -9.892,5.756 -0.018,0.388 -0.136,0.857 -0.342,1.39 m 157.44,33.944 c 1.173,-1.909 1.099,-13.409 -0.844,-16.153 -1.135,0.602 -3.416,5.702 -4.766,9.971 0.075,-0.008 0.147,-0.021 0.219,-0.021 0.498,0 0.963,0.238 1.311,0.685 0.898,1.16 1.498,3.715 1.806,6.576 1.041,-0.115 1.922,-0.49 2.274,-1.058 m -10.52,35.166 c -1.349,0.263 -5.453,5.083 -7.971,8.936 -0.587,1.977 -1.271,3.683 -1.947,4.712 0.289,0.844 1.219,1.461 1.565,1.664 0.937,0.549 2.025,0.839 2.933,0.839 0.645,0 1.198,-0.147 1.539,-0.451 1.676,-1.486 4.946,-12.511 3.881,-15.7 m -13.293,33.168 c -1.471,0.177 -6.496,5.38 -9.199,9.147 -0.565,1.249 -1.15,2.34 -1.709,3.141 -0.158,1.14 1.065,2.098 1.469,2.378 0.99,0.681 2.189,1.058 3.148,1.058 0.524,0 0.975,-0.111 1.283,-0.345 v -0.002 c 1.782,-1.36 5.838,-12.12 5.008,-15.377 m -15.926,29.834 c 1.223,-0.659 3.875,-4.736 5.649,-8.54 0.012,-0.049 0.016,-0.098 0.029,-0.146 0.098,-0.336 0.311,-0.779 0.602,-1.297 0.42,-1.019 0.75,-1.982 0.937,-2.808 -0.613,-0.228 -1.197,-0.522 -1.707,-0.868 -2.412,1.369 -6.232,4.394 -8.662,6.842 -0.754,1.143 -1.506,2.128 -2.183,2.828 -0.338,1.101 0.716,2.242 1.072,2.582 0.222,0.211 0.465,0.395 0.713,0.569 0.613,-0.198 1.164,-0.311 1.619,-0.31 0.189,0 0.363,0.018 0.517,0.059 0.61,0.159 1.016,0.592 1.164,1.177 0.086,-0.026 0.176,-0.049 0.25,-0.088 m -12.996,8.375 c -1.355,-0.177 -6.859,3.093 -10.492,5.936 -0.14,1.558 -0.99,3.799 -2.139,6.089 0.315,0.328 0.659,0.622 1.022,0.865 2.023,-0.965 3.986,-1.71 5.467,-1.96 0.093,-0.04 0.187,-0.082 0.279,-0.119 2.65,-3.273 5.846,-8.484 5.863,-10.811 m -22.029,29.084 c -1.803,-0.448 -9.361,2.96 -14.895,6.285 -1.096,1.738 -2.168,3.091 -3.057,3.735 0.407,0.077 0.745,0.316 0.964,0.715 0.603,1.095 0.275,3.591 -0.5,6.466 0.142,0.089 0.285,0.172 0.428,0.249 3.313,-3.396 7.609,-6.814 10.082,-7.141 0.082,-0.011 0.162,-0.016 0.239,-0.016 0.179,0 0.341,0.038 0.493,0.093 3.148,-3.773 5.976,-8.014 6.246,-10.386 m -22.068,25.879 c 0.035,0.078 0.062,0.167 0.088,0.258 0.13,-0.279 0.264,-0.572 0.395,-0.87 -0.144,-0.557 -0.175,-1.119 -0.047,-1.66 0.171,-0.743 0.9,-1.902 1.962,-3.232 1.377,-4.01 2.288,-7.97 1.675,-9.087 -0.068,-0.122 -0.129,-0.193 -0.378,-0.139 -3.561,0.767 -11.304,9.588 -12.955,13.227 0.048,-0.007 0.102,-0.028 0.149,-0.032 0.068,-0.007 0.134,-0.009 0.199,-0.009 0.649,0 1.153,0.332 1.399,0.932 0.295,0.72 0.185,1.921 -0.191,3.384 2.326,-1.905 4.636,-3.364 6.208,-3.573 0.081,-0.01 0.161,-0.015 0.238,-0.015 0.572,0 1.021,0.288 1.258,0.816 m -7.855,17.15 c 2.725,-3.141 7.801,-14.592 6.853,-16.7 -0.055,-0.122 -0.107,-0.193 -0.349,-0.161 -1.654,0.218 -4.369,2.129 -6.954,4.429 -1.104,3.147 -2.994,6.933 -4.762,9.884 1.486,-1.007 2.857,-1.701 3.902,-1.839 0.082,-0.01 0.161,-0.017 0.239,-0.017 0.57,0 1.022,0.29 1.258,0.817 0.326,0.725 0.208,2.016 -0.187,3.587 m -29.45,24.886 c 0.267,0.311 0.591,0.606 0.964,0.87 1.768,-2.584 2.816,-3.896 3.133,-3.923 l 0.303,-0.007 0.067,0.079 c 0.89,0.236 1.708,0.544 2.443,0.868 1.417,-4.09 2.684,-10.269 1.865,-11.471 -0.062,-0.089 -0.109,-0.141 -0.304,-0.08 -2.961,0.943 -9.109,9.78 -9.221,11.944 -0.007,0.133 0.009,0.271 0.038,0.412 0.4,0.095 0.638,0.15 0.647,0.152 l 0.761,0.177 z m -9.687,-0.222 c 0.052,0.273 0.194,0.546 0.396,0.805 1.893,-3.326 2.192,-3.368 2.347,-3.389 l 0.315,-0.022 0.075,0.089 c 1.487,0.378 2.963,0.74 4.132,1.021 0.498,-4.289 0.281,-11.283 -0.866,-12.308 -0.08,-0.073 -0.142,-0.11 -0.314,-0.005 -2.648,1.628 -6.495,11.681 -6.085,13.809 M 5.756,-22.204 c 2.429,-8.368 5.354,-21.932 7.267,-31.241 -0.519,0.583 -1.298,1.034 -2.294,1.284 -1.151,0.287 -2.529,0.278 -3.647,-0.111 -0.036,9.107 -0.792,22.03 -1.326,30.068 m 5.333,-239.008 c -2.213,0.344 -8.194,7.102 -8.67,8.979 -0.194,0.763 0.418,1.543 1.111,1.978 0.388,0.246 0.902,0.44 1.414,0.44 0.38,0 0.757,-0.108 1.079,-0.377 0.477,-0.397 1.1,-1.301 1.748,-2.424 0.002,-0.031 -0.003,-0.059 0.002,-0.09 0.104,-0.688 0.702,-1.76 1.554,-2.945 1.116,-2.424 1.967,-4.856 1.762,-5.561 m 292.178,-81.971 c -61.102,0.125 -149.348,11.391 -226.898,63.561 2.849,-0.111 6.536,-0.174 8.335,0.127 43.477,-27.633 94.539,-40.008 129.764,-45.524 37.32,-5.843 68.324,-5.709 69.91,-3.839 1.953,2.308 0.062,6.875 -5.617,13.595 11.418,-5.404 23.752,-20.943 24.506,-27.92 m -127.674,182.874 c 2.054,-1.571 7.181,-12.485 6.463,-15.504 -0.623,0.077 -1.893,1.064 -3.348,2.456 -0.979,2.255 -2.043,4.091 -2.922,4.763 -0.56,0.429 -1.254,0.629 -1.992,0.682 -1.318,1.683 -2.338,3.234 -2.617,4.17 -0.385,1.3 0.531,2.485 1.431,3.104 0.559,0.386 1.264,0.664 1.916,0.664 0.391,0 0.762,-0.1 1.069,-0.335 m -13.246,14.663 c 0.271,0 0.533,-0.058 0.777,-0.189 2.055,-1.105 7.77,-9.31 8.699,-13.179 -0.078,-0.048 -0.158,-0.088 -0.236,-0.141 -0.276,-0.19 -0.522,-0.4 -0.75,-0.62 -0.695,0.328 -1.588,0.875 -2.57,1.551 -1.323,2.072 -2.664,3.716 -3.639,4.24 v 0.001 c -0.379,0.203 -0.797,0.301 -1.231,0.348 -0.47,1.88 -1.765,4.425 -3.316,6.848 0.049,0.052 0.096,0.108 0.147,0.155 0.189,0.182 0.408,0.342 0.636,0.486 0.192,0.021 0.369,0.053 0.52,0.11 0.207,0.079 0.379,0.196 0.529,0.331 0.147,0.03 0.291,0.059 0.434,0.059 m -13.03,13.311 c 2.762,-1.155 10.92,-9.076 11.317,-12.059 -0.449,-0.11 -1.408,0.118 -2.621,0.556 -1.596,2.077 -3.194,3.713 -4.266,4.162 -1.096,0.458 -2.387,0.235 -3.58,-0.337 -0.277,0.166 -0.541,0.33 -0.803,0.495 -0.535,0.857 -1.101,1.7 -1.681,2.501 0.125,0.007 0.252,0.012 0.361,0.036 0.957,0.207 1.574,0.933 1.652,1.943 0.057,0.727 -0.086,1.652 -0.379,2.703 m -1.894,-2.443 c -0.031,-0.004 -0.066,-0.004 -0.1,-0.004 -2.674,0 -14.795,8.679 -16.634,12.026 -0.723,1.312 0.402,2.83 0.945,3.447 1.992,-0.734 3.773,-1.19 5.082,-1.19 0.476,0 0.888,0.06 1.228,0.188 0.621,0.234 1.071,0.661 1.315,1.212 3.34,-3.941 8.281,-12.307 8.164,-15.679 m -24.99,34.788 c 3.06,-0.915 13.912,-13.211 14.453,-17.974 -0.891,-0.223 -3.19,0.5 -5.955,1.687 -1.087,3.182 -4.236,7.73 -7.576,11.545 -0.208,1.34 -0.727,3.027 -1.413,4.81 0.17,-0.009 0.338,-0.023 0.489,-0.068 z m -0.167,-6.559 c -0.056,-0.123 -0.115,-0.191 -0.35,-0.162 -3.785,0.502 -13.127,9.867 -13.731,12.46 -0.322,1.385 1.001,3.47 2.952,4.649 1.504,0.907 2.929,0.991 3.813,0.227 2.561,-2.213 8.32,-14.94 7.316,-17.174 m -16.347,25.896 c 0.212,0.473 0.197,1.215 0.042,2.107 0.078,0.081 0.157,0.153 0.238,0.202 0.06,0.035 0.163,0.099 0.323,0.099 0.189,0 0.454,-0.086 0.819,-0.401 1.347,-1.163 3.834,-5.355 5.548,-9.16 -0.742,-0.099 -1.527,-0.378 -2.319,-0.856 -0.784,-0.473 -1.545,-1.129 -2.159,-1.877 -0.824,0.899 -1.56,1.848 -2.146,2.742 -0.377,1.274 -0.901,2.687 -1.504,4.113 -0.034,0.743 0.018,1.526 0.133,2.26 0.46,0.07 0.826,0.329 1.025,0.771 m -8.277,16.099 c 2.365,-2.044 8.265,-13.445 7.275,-15.649 -0.042,-0.091 -0.086,-0.184 -0.374,-0.147 -0.505,0.067 -1.034,0.25 -1.574,0.51 -1.459,2.863 -2.981,5.282 -3.887,6.065 -0.237,0.205 -0.503,0.357 -0.782,0.481 -0.276,0.834 -0.604,1.708 -0.967,2.595 0.41,0.094 0.734,0.349 0.917,0.758 0.457,1.018 -0.07,3.203 -1.039,5.682 0.126,-0.062 0.268,-0.155 0.431,-0.295 M 38.919,-290.376 c 0.079,0.121 0.14,0.258 0.176,0.41 0.112,0.498 -0.079,1.244 -0.45,2.115 0.009,0.012 0.019,0.024 0.026,0.034 2.244,-1.385 4.684,-2.512 6.176,-2.619 1.886,-2.502 3.689,-5.497 3.591,-6.358 h -0.04 c -1.982,0 -7.548,4.18 -9.479,6.418 m 16.964,-13.471 h -0.039 c -1.923,0 -7.192,3.916 -9.277,6.194 0.706,-0.295 1.35,-0.477 1.865,-0.477 0.052,0 0.104,0.002 0.151,0.006 0.59,0.041 1.017,0.398 1.143,0.957 0.163,0.721 -0.294,1.959 -1.056,3.357 0.095,-0.031 0.189,-0.06 0.283,-0.113 0.632,-0.355 1.583,-1.355 2.58,-2.588 -0.082,-0.549 -0.052,-1.09 0.168,-1.57 0.341,-0.752 1.492,-1.83 2.961,-2.916 0.77,-1.295 1.275,-2.385 1.221,-2.85 m 105.462,-95.183 c -4,16.676 -8.131,33.884 -13.459,48.623 l 7.261,-2.489 c 5.047,-18.498 32.426,-98.636 37.129,-112.374 -15.23,0.81 -22.867,32.63 -30.931,66.24 m 54.576,-93.985 c -14.457,7.434 -43.938,99.52 -55.139,137.908 l 7.819,-2.273 55.638,-137.084 c -0.97,-0.537 -3.361,-1.097 -8.318,1.449 m 20.025,-10.173 c -4.218,3.878 -38.929,87.332 -62.066,144.505 l 3.793,-1.299 71.056,-147.177 c -3.212,0.297 -8.775,1.201 -12.783,3.971 m 52.414,-13.043 c -6.908,2.884 -54.711,87.916 -75.144,124.261 -7.104,12.635 -10.869,19.33 -12.961,22.912 l 8.889,-2.838 87.796,-131.949 c 0.719,-2.027 1.93,-7.363 -0.293,-10.228 -1.441,-1.858 -4.228,-2.582 -8.287,-2.158 m 34.815,148.105 5.232,0.871 c 0,0 -5.513,19.895 -20.381,26.871 -5.447,14.652 -22.298,28.248 -33.75,32.436 -14.027,7.847 -18.962,9.91 -31.949,16.613 -15.959,8.238 -30.437,18.969 -30.437,18.969 0,0 -3.09,10.609 -4.709,20.627 -0.324,1.996 2.734,1.431 2.441,3.523 -1.508,10.812 -2.787,24.466 -7.326,39.346 -3.49,11.444 -8.887,21.803 -13.801,32.852 -2.676,6.02 3.434,2.518 0.029,8.123 -6.009,9.894 -27.83,32.608 -35.349,38.645 -5.016,3.639 3.803,0.902 0.457,5.495 -3.346,4.592 -26.14,27.03 -30.205,30.579 -4.373,3.816 -5.376,6.384 7.084,2.879 -2.085,1.533 -38.679,41.26 -40.314,43.225 -1.687,2.03 -2.499,5.994 3.316,4.251 -3.953,6.627 -24.827,22.325 -25.336,22.3 -0.51,-0.024 1.032,4.038 2.721,2.467 -8.774,15.001 -30.556,25.118 -30.556,25.118 0,0 -0.261,0.448 1.047,2.529 -3.402,3.651 -18.577,4.274 -18.577,4.274 l 0.726,2.616 C 19.292,19.1 2.402,14.128 2.402,14.128 c 0,0 1.049,2.374 -0.739,3.116 C -11.452,15.15 -19.926,3.087 -19.926,3.087 c -32.09,1.775 -80.755,-9.105 -82.849,-23.608 12.298,1.458 68.419,-8.259 68.419,-8.259 0,0 32.517,-11.067 19.461,-88.119 l 4.282,1.177 c 0,0 -12.448,-35.265 -15.937,-60.735 9.299,6.141 0.743,-24.744 9.721,-56.519 2.55,0 2.995,3.411 6.152,-3.6 2.951,-6.559 9.908,-21.12 17.417,-30.22 8.115,-9.832 18.634,-23.035 31.081,-33.433 1.535,-1.284 2.065,3.626 3.661,2.353 12.693,-10.139 27.38,-28.213 43.426,-38.678 3.418,-2.23 4.488,2.828 8.023,1.045 15.72,-7.933 34.426,-17.801 51.804,-25.291 20.409,-66.711 19.711,-108.668 51.075,-109.539 5.701,-17.791 14.336,-31.049 31.369,-29.451 6.34,-13.738 26.429,-13.672 26.429,-13.672 4.157,-4.584 22.256,-4.474 25.85,-3.385 6.695,-5.232 9.844,-5.31 14.15,-4.861 5.854,0.611 9.506,4.187 9.506,13.516 0,3.181 -2.092,8.373 -2.092,8.373 8.467,6.603 5.457,14.191 2.518,18.015 10.145,5.918 7.074,12.946 6.813,14.385 -0.26,1.441 -4.674,7.875 -4.674,7.875 0,0 3.629,8.609 2.058,14.104 -1.57,5.496 -4.361,8.275 -4.361,8.275 0,0 3.336,9.395 0.611,14.969 -5.886,12.035 -29.711,34.26 -29.711,34.26 0,0 43.141,-6.875 58.84,-4.522 4.022,2.879 -9.941,24.332 -9.941,24.332"
             style="fill:#110f0d;fill-opacity:1;fill-rule:nonzero;stroke:none"
             id="path309" />
        </g>
      </g>
    </g>
  </g>
</svg>
